<svg width="55" height="49" viewBox="0 0 55 49" fill="none" xmlns="http://www.w3.org/2000/svg">
<path d="M20.763 3.01188L20.4661 1.92204L16.1895 7.14183L18.0902 8.8053L16.7241 12.9352L17.1992 13.3368L17.021 15.1723C17.1398 15.4017 17.1992 15.6886 17.1398 15.9754C17.1398 16.0901 17.0211 16.1474 16.9023 16.2622L14.9422 18.7287L12.6257 16.7784L7.39883 19.8185L9.06192 21.5393L10.4874 21.2525C10.9032 21.5967 11.2596 21.9409 11.6754 22.2277C11.9129 22.3997 12.1505 22.5718 12.3287 22.7439C12.5069 22.916 12.5663 23.0881 12.6851 23.3175C12.8039 23.5469 12.8633 23.8337 12.8633 24.1205C12.9227 24.2353 12.9227 24.35 12.9227 24.5221L12.3881 25.8987L12.9227 27.2754L12.2099 28.3652L11.7942 29.7419L10.9626 30.3155L9.2401 29.1683L5.67631 31.6921L4.66658 31.0038L1.51856 31.9216L3.06287 34.5602L0.687012 37.3135L3.53805 42.2465L5.08235 43.5084L6.62666 45.1719H7.39883L9.06192 46.2617L10.7844 44.8851L14.5264 43.1069L18.6248 43.3937L19.3375 45.1719L20.763 44.8851L22.4855 43.3937L24.0298 45.1719L26.0493 44.1967L28.6034 46.5485C28.8409 46.3764 29.0785 46.2617 29.3161 46.2043L29.3755 46.2617C29.3755 46.3191 29.3755 46.3764 29.3755 46.3764C29.3755 46.5485 29.3755 46.6632 29.3161 46.8353L34.3054 43.5084L35.0182 44.4835L36.3249 44.3115L38.4632 45.2866L39.1759 45.1719L40.7202 43.2216L40.8984 42.2465L43.4525 42.9348L43.7495 43.3937L44.284 43.6231L45.175 44.3115L45.4126 44.7703L46.4223 45.1719L47.729 46.2617L48.2636 44.7703L49.6891 44.9998L50.5801 43.9099L51.5898 42.2465C51.6492 42.2465 51.768 42.1891 51.8274 42.1317C51.8868 42.0744 51.9462 42.017 51.9462 42.017C52.0056 41.9597 52.0056 41.9023 51.9462 41.8449C51.9462 41.7876 51.8868 41.7302 51.8274 41.7302C51.768 41.6729 51.6492 41.6155 51.5898 41.5581C51.5898 41.3861 51.6492 41.214 51.7086 41.0419V40.9272C52.1838 40.9272 52.7183 40.9845 53.2529 41.0419L52.7183 38.1165L53.8469 36.3383L52.7183 35.5353C52.8965 34.3307 52.9559 33.1262 52.9559 31.9216C52.8965 31.4627 52.7777 30.9465 52.4808 30.4876C52.2432 30.2008 52.1838 29.7992 52.1244 29.3404L49.9861 29.6272L49.5703 31.5201L44.284 30.717L44.581 30.3155L43.4525 28.3652L44.878 27.7916L44.6998 24.9236L45.8877 24.6368L45.7096 23.8337L45.6502 23.8911C45.472 23.719 45.3532 23.6043 45.2938 23.4322L45.7096 21.3673L46.3035 19.9906L46.1253 19.417L44.581 17.6388L44.284 10.1819L44.9968 9.89515L45.2938 4.84741L43.7495 3.87229L40.7202 3.7002L38.4632 1.52051L37.3347 2.09411L33.8896 3.29869L33.4739 4.67534L31.0386 4.38853L29.9101 2.78245L28.0688 2.49564C28.0688 2.553 28.0094 2.66772 28.0094 2.72508C27.95 2.8398 27.8906 2.95453 27.8312 3.06925C27.8312 3.18397 27.7718 3.29869 27.7124 3.35605C27.7124 3.47077 27.5936 3.52813 27.4748 3.52813C27.4154 3.52813 27.356 3.47076 27.356 3.47076C27.2372 3.4134 27.1184 3.35605 27.059 3.29869L26.0493 4.96214L22.4855 3.29869V4.38853C22.4261 4.50325 22.3667 4.56061 22.3667 4.56061C22.1291 4.56061 21.951 4.50325 21.7728 4.38853L20.763 3.01188Z" fill="#C4DFE9" stroke="white" stroke-miterlimit="10"/>
</svg>
