<svg width="49" height="51" viewBox="0 0 49 51" fill="none" xmlns="http://www.w3.org/2000/svg">
<path d="M47.2165 7.27454L46.088 4.92277L44.9595 3.83291V1.19434H43.9497L43.7715 1.36641V1.19434L42.1084 2.05474C42.1678 2.05474 42.2272 2.1121 42.346 2.22682C42.643 2.45626 42.5836 2.62834 42.2866 2.74306C42.2272 2.74306 42.2272 2.80043 42.2272 2.85779C42.1084 3.31667 41.8708 3.66083 41.5145 3.94763C41.2175 4.23444 40.8611 4.46387 40.5641 4.69331C40.3265 4.8654 40.1483 5.03749 39.9108 5.20957C39.8514 5.26693 39.7326 5.32429 39.6732 5.38165C39.3168 5.38165 39.0792 5.49637 38.7822 5.78318V6.87302L36.8221 6.98773L35.0996 7.96287L35.8124 9.74105L34.8027 10.1426C34.6245 10.372 34.4463 10.6015 34.2681 10.8309C33.9117 11.2898 33.4959 11.5766 33.0802 11.7487C32.8426 11.8634 32.605 11.9207 32.3674 11.9781C32.1298 11.9781 31.8922 12.0355 31.6546 12.0928C31.5358 12.1502 31.4171 12.1502 31.2983 12.0928C31.2983 12.0928 31.2389 12.0355 31.2389 11.9781L31.1201 11.003L30.4073 8.76591V8.6512H30.5261L29.6946 8.24967L28.3878 7.38927L27.6751 5.78318L25.2398 6.98773V8.0776V8.13494C25.2398 8.13494 25.1804 8.13496 25.121 8.0776L23.5767 8.6512C23.4579 8.6512 23.3985 8.6512 23.2797 8.59384C22.9828 8.47912 22.6858 8.36439 22.4482 8.19231C22.27 8.13495 22.1512 8.02023 22.0324 7.96287C21.7948 7.73343 21.676 7.50399 21.6166 7.21719C21.5572 7.10247 21.6166 6.98774 21.676 6.87302L21.2603 5.89789L21.4384 4.92277L20.8445 4.40651L20.2505 6.58622V5.49637L19.419 5.32428L19.0032 6.18469L16.8649 5.20957L16.271 4.63597V3.5461L12.7072 5.78318L11.6974 5.89789L10.5689 6.29942L10.0343 6.18469L9.55915 6.87302L9.85613 7.38927C9.67794 7.61871 9.49976 7.79079 9.32157 7.96287C9.26217 8.02023 9.20277 8.0776 9.14337 8.0776L7.18329 9.05272L8.31183 10.3147L7.59906 12.3796L6.88631 12.7811L6.47053 13.6416L6.70812 14.2152L5.87657 14.7314L5.75778 15.4197L5.04502 15.936C5.04502 16.1081 5.04502 16.2228 5.04502 16.3375C5.04502 16.3949 5.04502 16.4522 5.04502 16.5096C5.10442 16.5669 5.16381 16.6817 5.2232 16.7964C5.342 16.9111 5.342 17.0832 5.40139 17.1979C5.46079 17.5421 5.52018 17.9436 5.52018 18.2878C5.52018 18.3451 5.46079 18.3451 5.40139 18.4025C5.342 18.4599 5.2232 18.5172 5.2232 18.5746C5.16381 18.804 5.04502 19.0335 5.04502 19.2629C5.04502 19.2629 5.04502 19.3776 4.98562 19.3776C4.92622 19.4923 4.92623 19.6071 4.86683 19.6644C4.74804 20.0086 4.51045 20.1807 4.15407 20.238L3.32252 19.7791V21.0984L3.02553 21.4426L2.84734 23.7944L3.32252 24.2533L4.45106 28.8995L2.31278 30.104L1.30304 30.2761L1.897 31.4807L2.72855 31.366L3.73829 30.7923L4.33226 32.7426C4.51044 32.9147 4.62924 33.0294 4.86683 33.1441L5.16381 35.0944L4.56985 35.7827L4.45106 36.5858L3.6195 37.1594C3.6195 37.2167 3.67889 37.3315 3.73829 37.3315C3.85708 37.3315 3.91648 37.3315 4.03527 37.3315C4.21346 37.3315 4.33226 37.3315 4.51045 37.2167C4.56984 37.2167 4.62925 37.1594 4.74804 37.0447C4.80743 36.9873 4.80743 36.9873 4.86683 36.9873L6.17355 37.2741L6.47053 37.9624C6.70812 37.8477 6.9457 37.733 7.18329 37.6183L7.0051 37.6756C6.9457 37.6756 6.82691 37.6756 6.70812 37.6756L6.29234 35.8974L7.30208 35.6106C7.42087 35.6106 7.48027 35.6106 7.59906 35.6106C7.83665 35.7254 8.01484 35.7254 8.19303 35.668C8.25242 35.6106 8.31183 35.5533 8.31183 35.3812C8.31183 35.4959 8.43061 35.6106 8.49001 35.668C8.6088 35.7254 8.7276 35.7827 8.84639 35.7827L10.4501 35.0944V33.4309L10.0343 33.0294L9.85613 30.6776L12.5884 30.104L13.7169 30.5629L16.1522 29.7025L16.9837 30.104L17.3995 30.9644L17.1619 32.3411L17.5777 33.3162L18.4092 33.4309L19.419 34.6929L18.5874 35.7827V37.1594L19.3002 37.9624L20.4287 37.8477L20.8445 38.8228L20.2505 39.3391L20.1317 40.3142L19.3002 41.5761L18.1122 41.8056V42.666L19.5378 42.0924L20.4287 41.5761L21.5572 41.0025C21.676 41.0025 21.676 41.0025 21.7354 41.0025C21.7948 40.8305 21.8542 40.6584 21.8542 40.4289L22.864 40.3142C22.7452 40.1995 22.6858 40.0274 22.6264 39.9127C22.6264 39.798 22.6264 39.7406 22.7452 39.6832C22.864 39.5685 22.9828 39.5112 23.1016 39.5112C23.1609 39.5112 23.2203 39.5112 23.2797 39.5112C23.2797 39.5112 23.3391 39.5112 23.3985 39.5112L23.5767 37.5609L24.5271 37.8477L25.418 38.3639L25.121 39.0523C25.1804 39.167 25.2398 39.2244 25.2992 39.2817C25.418 39.3964 25.5368 39.4538 25.715 39.5112C25.8338 39.5112 25.8932 39.3964 25.9526 39.2244C25.9526 39.1096 25.9526 39.0523 25.9526 38.9375L26.2496 41.1172L25.715 41.6908L26.8435 42.666C26.8435 42.666 26.9029 42.666 26.9623 42.6086C27.1405 42.666 27.3187 42.666 27.4969 42.666C27.5563 42.7233 27.6157 42.7807 27.6751 42.9528V44.0426L28.8036 45.1325L29.6946 44.731L32.9614 48.6888C32.9614 48.8036 33.0208 48.8609 33.0208 48.8609C33.0802 48.9183 33.0802 48.8609 33.1396 48.8036C33.1396 48.6888 33.1396 48.5741 33.1396 48.4594H33.2584L35.8124 50.0655C35.8718 50.0655 35.9312 50.0081 35.9312 49.9508C35.9906 49.9508 36.05 49.9508 36.1094 49.9508C36.1688 50.0081 36.2876 50.0655 36.4064 50.0655L36.9409 49.664L37.3567 50.0655H38.3664H39.0792L40.2077 47.7711L40.3859 45.2472C40.5047 45.0751 40.6829 44.903 40.8017 44.731C41.0987 44.5589 41.3957 44.4442 41.6333 44.3294L41.8114 42.7807L39.495 43.7558L39.9701 42.7807L40.5047 42.4939L40.9205 41.8056H41.9302C41.9896 41.7482 41.9896 41.6335 41.9896 41.5761C41.8708 41.232 41.8114 40.8878 41.6333 40.601C41.5739 40.3716 41.5145 40.1421 41.5739 39.97C41.7521 39.5111 41.9896 39.4538 42.2272 39.9127L42.643 40.3142H43.6527L44.2467 36.8726L43.0588 35.2091C43.0588 34.9223 43.0588 34.6355 43.0588 34.4061C42.9994 33.9472 42.9994 33.5457 42.8806 33.1441C42.7618 32.5705 42.7024 31.9969 42.7024 31.366C42.643 31.0792 42.7024 30.735 42.8806 30.4482C42.9994 30.104 43.1776 29.7599 43.3558 29.4157C43.5933 29.0715 43.8309 28.7274 44.0685 28.3259C44.1279 28.2111 44.1873 28.0964 44.1873 27.9243C44.3061 27.6375 44.3655 27.2934 44.3655 26.9492C44.3655 26.3756 44.3061 25.802 44.1279 25.2284C44.1279 25.0563 44.0685 24.8842 43.9497 24.7121C43.7121 24.3106 43.5339 23.7944 43.4745 23.3355C43.2964 22.5324 43.1776 21.672 43.0588 20.8116C43.0588 20.4101 42.8806 20.0086 42.7024 19.6644C42.5242 19.3776 42.346 19.1482 42.2272 18.8614C42.1084 18.804 42.049 18.6319 41.9896 18.5172C41.8114 18.2304 41.6927 17.9436 41.5145 17.6568L41.9302 16.7964L42.94 15.5345L44.3655 15.6492L46.088 14.9609C46.2662 14.8461 46.4444 14.674 46.5632 14.502C46.8601 14.2152 47.0977 13.9284 47.3353 13.5842C47.4541 13.3548 47.6323 13.068 47.8105 12.7811C48.0481 12.4943 48.1669 12.1502 48.2857 11.806C48.3451 11.3471 48.3451 10.9456 48.2263 10.4867C48.0481 10.0852 47.8699 9.68368 47.6917 9.33952C47.5729 9.16744 47.5135 9.05273 47.5135 8.93801C47.4541 8.6512 47.3947 8.36439 47.3353 8.13494C47.2759 8.07758 47.2759 8.02023 47.2759 7.96287C47.2165 7.73343 47.2165 7.50398 47.2165 7.27454Z" fill="#C4DFE9" stroke="white" stroke-miterlimit="10"/>
</svg>
