<svg width="61" height="67" viewBox="0 0 61 67" fill="none" xmlns="http://www.w3.org/2000/svg">
<path d="M41.0709 9.96206L41.7837 9.56055L41.4867 6.92196L39.3484 7.20876L38.2199 6.92196L37.6853 6.40571C36.2598 6.06155 34.8343 5.71739 33.4088 5.31586C33.2306 5.31586 32.993 5.2585 32.8148 5.08642C32.696 5.02905 32.5178 4.91434 32.399 4.74226C31.805 4.28337 31.2111 3.82448 30.6765 3.3656L30.3795 4.34074L27.2315 1.70215L26.9939 2.27575L26.5188 1.87423L24.9744 4.85698L23.5489 5.5453H22.7174L20.6979 7.38084L21.2919 8.29861L21.5295 9.15902C21.2919 9.15902 21.1137 9.27374 20.9355 9.44582C20.7573 9.56054 20.6979 9.73262 20.6385 9.96206C20.6385 10.1341 20.6385 10.3062 20.6385 10.5357C20.6385 10.6504 20.6385 10.8225 20.6385 10.9372C20.6979 11.0519 20.6979 11.1093 20.6979 11.224C20.6979 11.3387 20.6385 11.5108 20.5791 11.6255L21.2919 12.8874L20.5791 12.4286L20.4009 13.1169L19.1536 13.9773C18.9754 13.9773 18.916 14.0347 18.8566 14.1494C18.8566 14.2641 18.916 14.4362 18.9754 14.6656L16.7183 14.7803L16.5402 13.5758L15.1146 14.2641L14.877 15.0671C14.6989 15.0098 14.5801 15.0098 14.5801 15.0671C14.3425 15.3539 14.2237 15.6408 14.2237 16.0423C14.2237 16.0996 14.2831 16.2144 14.4019 16.3291L14.877 17.1321V18.6235L15.1146 19.8854L14.1643 19.7707L15.2928 20.1722V20.9753L13.2733 22.9255L11.3133 23.6139L9.59076 22.6387L8.69981 22.9255L7.1555 22.6387C7.03671 22.8682 6.91793 23.0403 6.73974 23.155C6.08637 23.6139 5.31421 23.9007 4.54206 24.0728C4.24508 24.1301 4.0075 24.1875 3.76991 24.0728C3.65112 24.0154 3.59171 23.958 3.53231 23.958C3.35412 23.7859 3.11655 23.6712 2.87896 23.6139C2.81957 23.6139 2.76016 23.6139 2.76016 23.6139L0.621887 26.1951L1.33465 30.0956L2.46318 29.522L4.72024 31.7017L7.74947 31.8738L9.29378 32.8489L8.9968 37.8966L8.28403 38.1834L8.58101 45.6403L10.1253 47.4185L10.3035 47.9921L9.70956 49.3687L9.29378 51.4337C9.35317 51.6058 9.47197 51.7205 9.65016 51.8926L9.70956 51.8352L9.88774 52.6383L8.69981 52.9251L8.878 55.7931L7.45248 56.3667L8.58101 58.317L8.28403 58.7185L13.5703 59.5215L13.9861 57.6287L16.1244 57.3419C16.1838 57.8007 16.2432 58.2023 16.4808 58.4891C16.7777 58.9479 16.8965 59.4642 16.9559 59.9231C16.9559 61.1276 16.8965 62.3322 16.7183 63.5368L17.8469 64.3398L18.2627 64.6266L22.7174 63.8236L24.8557 65.315L24.9744 64.3398L25.9842 64.053L26.2812 65.0282L29.1322 65.2002C29.3698 65.3723 29.6668 65.5444 29.9044 65.7739C29.9638 65.8886 30.0232 66.0033 30.0825 66.118L31.2705 66.2901C31.4487 66.0607 31.6269 65.8886 31.805 65.7165C31.9832 65.6591 32.102 65.6018 32.2208 65.6018C32.3396 65.6018 32.4584 65.6018 32.5178 65.6018L32.9336 65.2002L33.8245 62.5617L35.25 62.2749L35.547 62.8485L36.3786 62.6764L36.7943 62.2749L36.6756 60.6114L37.6853 59.4068L37.9229 55.7931C38.1011 55.7931 38.1605 55.7931 38.2793 55.6784C38.398 55.5637 38.4575 55.449 38.5169 55.2769L42.0806 55.5637L42.9122 52.6383L42.0806 50.9748H41.0709L40.5363 49.5982L41.2491 46.4434L42.3776 45.5256V45.0667L42.7934 43.9769C42.6152 43.9195 42.5558 43.8621 42.4964 43.8048C42.437 43.518 42.3776 43.2885 42.3776 43.0017C42.3776 42.9444 42.3776 42.8296 42.3776 42.7723C42.4964 42.4855 42.5558 42.1987 42.734 41.9692C42.9716 41.5677 43.2092 41.2236 43.5062 40.822L44.5159 40.9367L45.0505 40.4205L47.1887 41.3383L47.4857 39.9616L48.6143 39.4454L49.0894 38.4702L48.0797 37.7819L47.9015 36.9789C48.0203 36.8068 48.1391 36.7494 48.1985 36.7494C48.4361 36.7494 48.6737 36.8068 48.9112 36.9789L50.218 36.52L51.0495 37.0936L51.7623 35.4301L52.475 34.9139V33.9388L50.5149 32.2753L50.6337 31.3002L51.6435 30.7839L52.1781 28.8337L51.9404 28.2601V27.3423L52.772 26.4819L55.623 25.5068L56.3358 23.9007L55.623 22.6387L55.5042 21.8357L55.92 20.8606H57.3455L58.1771 19.3118C58.4147 19.3692 58.6523 19.3692 58.8304 19.2545C58.9492 19.2545 59.0086 19.1971 59.068 19.0824C59.1274 19.0824 59.1274 19.0824 59.1868 19.025C59.2462 18.9677 59.2462 18.8529 59.2462 18.7956C59.2462 18.6809 59.2462 18.6235 59.1868 18.5088C58.8898 18.5088 58.7117 18.3941 58.7117 18.222C58.6523 18.1073 58.7117 18.0499 58.7117 17.9352C58.7711 17.8204 58.771 17.7631 58.771 17.7057C58.8304 17.6484 58.8304 17.591 58.8898 17.5337C58.9492 17.4763 58.9492 17.4189 59.0086 17.3616C59.0086 17.2468 59.068 17.1321 59.1274 17.0174C59.1274 16.8453 59.1868 16.7306 59.3056 16.5585C59.3056 16.5585 59.3056 16.5012 59.365 16.5012C59.4244 16.3864 59.5432 16.3291 59.6026 16.3291L59.068 15.1819L58.1771 15.0671L56.9298 14.9524L56.6328 15.8702L55.623 16.5585L54.0787 16.4438L53.366 17.9352C53.366 18.3367 53.366 18.6809 53.3066 19.025C53.2472 19.0824 53.1878 19.1397 53.069 19.1971L52.6532 19.5986L51.9404 19.4839L50.5149 20.287C50.3961 20.3443 50.2774 20.4017 50.218 20.459C50.0992 20.459 50.0398 20.4017 49.9804 20.3443C49.8616 20.2296 49.7428 20.0575 49.624 19.8854L48.3767 19.4839L47.3669 20.459L48.0797 18.9103L47.0699 18.222L39.2296 16.3291L38.5169 15.3539L38.8138 14.4935L38.5169 13.289L41.3679 11.0519L41.0709 9.96206Z" fill="#C4DFE9" stroke="white" stroke-miterlimit="10"/>
</svg>
