<svg width="57" height="51" viewBox="0 0 57 51" fill="none" xmlns="http://www.w3.org/2000/svg">
<path d="M30.305 3.00992C30.1268 3.182 29.9486 3.18201 29.711 3.06729H28.7013C28.7013 3.06729 28.7013 3.12465 28.7013 3.18201C28.7013 3.23937 28.7013 3.29673 28.6419 3.29673C28.6419 3.35409 28.6419 3.41145 28.5825 3.46881C28.5231 3.81297 28.1667 4.04241 27.5728 4.15713C27.5728 4.04241 27.5728 3.87033 27.5728 3.75561C27.5134 3.81297 27.454 3.87034 27.3946 3.81298C27.0976 3.69825 26.86 3.46881 26.7412 3.18201L25.8503 3.87033L25.1375 2.8952L24.8405 4.15713L23.712 4.73074L22.8804 3.87033L22.4647 2.8952L21.2767 4.44394C21.2767 4.44394 21.2767 4.5013 21.3361 4.55866C21.3361 4.61602 21.3361 4.67338 21.3361 4.67338C21.2767 4.7881 21.2173 4.90283 21.1579 4.96019L20.3264 5.82059L19.0197 5.53379L18.6039 5.13227V4.15713L17.4754 2.66577L16.2874 1.51855L15.8717 3.18201L14.8619 4.15713L13.9116 4.55866L12.486 4.44394L11.5951 5.13227L10.5854 4.84547L9.04105 4.73074L8.32829 4.84547L7.49674 4.55866L7.02157 3.87033L6.07123 4.73074L7.02157 7.02516L7.61554 7.31196L6.78399 8.0003L11.4763 11.614L10.4666 12.4171L8.62528 12.5318L7.61554 13.5069L7.91252 14.5968L7.19976 14.8836L7.49674 19.415L7.19976 21.3653L6.487 22.1683L6.60579 22.8567L6.487 23.3156L7.02157 25.2085L7.61554 25.61L7.02157 25.8968L6.90278 27.847L5.77425 28.6501L4.8833 27.9617L4.46752 28.1338L0.784942 28.6501L0.60675 29.6252L2.92321 31.8049L3.63597 32.2638C3.63597 32.4932 3.75476 32.6653 3.93295 32.7227C4.22994 32.9521 4.58632 33.1242 5.06149 33.1242C5.12088 33.1242 5.23968 33.1242 5.29907 33.1242C5.47726 33.0668 5.77424 33.0668 6.30881 33.0668C6.42761 33.0095 6.487 32.8948 6.5464 32.8374L6.487 32.78C6.487 32.78 6.487 32.78 6.5464 32.78C6.5464 32.78 6.5464 32.78 6.5464 32.8374L7.61554 33.6404V34.3288L8.2095 34.7303L8.44709 35.9349C8.3283 36.1643 8.2095 36.3364 8.09071 36.5658C8.09071 36.6232 8.03131 36.6806 7.97192 36.7379C7.97192 36.7953 7.91252 36.8526 7.91252 36.91L7.49674 38.2866H8.44709L10.7635 39.147L11.5951 40.0648L11.4763 41.6136L12.0109 42.8181L11.8921 44.4816L13.3176 46.8334L15.8717 49.5867L17.4754 49.8735L18.0099 49.5867H19.3166L36.2446 41.4415L36.9574 41.9004H37.8484L38.9769 40.9252L38.8581 39.5486L46.2233 36.1069L49.9652 37.2542L50.0246 37.3115C50.1434 37.1394 50.2028 37.1394 50.3216 37.1394C50.6186 37.2542 50.975 37.4836 51.2126 37.7704L52.6381 36.3938L52.9351 34.4435L53.9448 34.042L55.2515 32.78H54.2418L53.1132 31.1166L52.8163 29.2237L54.2418 28.1338L53.6478 27.4455L53.232 23.545L53.9448 23.0287L53.6478 22.4551L53.826 19.9886L52.6381 19.7018L51.5095 18.3252V17.8089L50.381 16.9485L48.6585 17.9237L47.1142 15.8587H46.1045L46.5202 13.7937C46.5796 13.7363 46.5796 13.679 46.639 13.679C46.6984 13.5069 46.6984 13.4495 46.6984 13.3922C46.4608 13.2201 46.1639 13.048 45.8075 12.9907L45.3917 12.3023L44.5602 11.8434L43.491 12.3023L42.5407 12.0155L41.9467 12.3023L42.1249 11.3272L41.4121 10.4668C41.0558 10.4094 40.8182 10.2947 40.6994 10.2374L40.8182 10.0653C41.1152 10.0079 41.3527 9.83583 41.4715 9.66375C41.5903 9.54903 41.5903 9.43431 41.4715 9.26222C41.4121 9.20486 41.4121 9.1475 41.4121 9.09014L39.9272 8.5739L39.2739 8.97542L38.5611 8.5739L36.9574 9.37694L35.8289 10.2374L36.2446 11.0404L35.5319 12.7039H33.6906L33.5718 15.5719C33.5718 15.6292 33.5124 15.6292 33.5124 15.6292C33.3936 15.744 33.2748 15.8013 33.0966 15.8587C33.0966 15.916 33.0372 15.916 33.0372 15.9734C32.9778 15.744 32.859 15.5145 32.7996 15.3424C32.6809 14.8835 32.6809 14.4247 32.6809 13.7937C32.7403 13.3922 32.6215 13.1627 32.2651 13.1054L31.4335 12.7039L30.8396 11.4419L31.4335 10.4668L32.4433 10.2374L33.0966 8.68862L33.9876 8.17237C33.9282 8.11501 33.9282 8.05766 33.8688 8.0003C33.6906 7.77085 33.75 7.5414 34.1064 7.31196L31.7305 3.06729L31.2553 3.58353C31.4335 3.81297 31.4929 4.04242 31.4335 4.27186C31.4335 4.44394 31.3147 4.38658 31.0178 4.15713L30.8396 4.27186V4.15713L30.6614 4.2145C30.6614 3.98506 30.7208 3.75561 30.8396 3.46881C30.8396 3.41145 30.8396 3.35409 30.8396 3.35409C30.7802 3.23937 30.6614 3.18201 30.5426 3.12465C30.4832 3.00993 30.305 3.00992 30.305 3.00992Z" fill="#C4DFE9" stroke="white" stroke-miterlimit="10"/>
</svg>
