<svg width="84" height="56" viewBox="0 0 84 56" fill="none" xmlns="http://www.w3.org/2000/svg">
<path d="M46.2336 7.08479C46.293 7.19951 46.293 7.31423 46.2336 7.42895L46.1742 7.48631C46.1148 7.42895 46.1148 7.31423 46.1742 7.19951L45.2832 8.40408H44.5705C44.6893 8.57616 44.7487 8.74824 44.6893 8.92032C44.6893 9.26449 44.5111 9.37921 44.1547 9.26449L43.0262 8.69088L42.7292 8.28936L42.1352 8.57616L39.0466 11.731C39.0466 11.7884 39.0466 11.9031 39.0466 11.9604L39.106 12.0752C38.8684 12.1899 38.6308 12.362 38.4526 12.534C38.4526 12.5914 38.4526 12.6488 38.4526 12.7061C38.3932 12.8208 38.3338 12.9356 38.2744 13.0503C38.215 13.1076 38.215 13.165 38.1557 13.165C38.0963 13.2224 38.0962 13.2224 38.0369 13.2224C37.9775 13.165 37.9181 13.1076 37.8587 13.1076C37.6805 12.9356 37.5023 12.8782 37.3241 12.8208L36.1956 13.3944H35.4828L34.5919 14.0828L34.6513 14.1401C34.5919 14.0828 34.4731 14.0254 34.2949 13.9107C34.4137 13.8533 34.4731 13.796 34.4137 13.796C34.2355 13.5092 34.1167 13.2224 34.1761 12.9356C34.1167 12.9356 34.0573 12.9356 34.0573 12.9929C33.9979 12.9929 33.9385 13.0503 33.9385 13.1076C33.9385 13.3371 33.8197 13.5092 33.7603 13.5665L33.5821 13.3944C33.5821 13.3371 33.5227 13.2797 33.4633 13.2224V14.1975L32.7506 14.4843V15.1726L31.2063 16.2625L30.1965 15.8609L29.3056 15.9757C29.4244 16.1477 29.4838 16.2625 29.6026 16.4346C29.662 16.4346 29.6619 16.4346 29.7213 16.4346C29.7213 16.4919 29.7213 16.5493 29.7213 16.6066C29.6026 16.7214 29.4838 16.7214 29.3056 16.7214C29.3056 16.7214 29.2462 16.7214 29.1868 16.664L22.6532 15.5741C22.6532 15.7462 22.5344 15.9183 22.2968 16.033C22.0592 16.2051 21.8216 16.2625 21.4652 16.2625C21.5246 16.2625 21.5246 16.3198 21.5246 16.3772C21.5246 16.3198 21.5246 16.2625 21.4652 16.2625L20.7525 16.5493L20.0397 17.2376C20.1585 17.2376 20.2179 17.295 20.2179 17.4097C20.2773 17.467 20.2179 17.5244 20.1585 17.5818C19.9803 17.6965 19.8021 17.8112 19.6239 17.9259L18.3766 17.5244L18.0796 18.3274L17.3669 17.6391L16.6541 17.7538L15.9414 18.9011L16.0602 20.794L15.5256 21.4823L17.1887 23.2605C17.1293 23.4325 17.0105 23.4899 16.8917 23.5473C16.7135 23.6046 16.5353 23.6046 16.3571 23.5473C16.3571 23.6046 16.3571 23.662 16.3571 23.662C16.4759 23.8914 16.5947 24.0061 16.7135 24.0061C16.8323 24.0635 16.9511 24.1209 17.0699 24.0635C17.1293 24.0635 17.2481 24.0635 17.3669 24.1209C17.3669 24.2356 17.4263 24.3503 17.5451 24.5224L17.6045 24.5797C17.3669 24.5797 17.0699 24.6945 16.7729 24.9239L16.6541 26.1858C16.5353 26.3006 16.4165 26.4153 16.2977 26.53C16.1789 26.5874 16.0602 26.5874 15.9414 26.4726C15.9414 26.4153 15.9414 26.3579 15.882 26.3579C15.8226 26.1858 15.7038 26.0711 15.585 26.0138C15.5256 25.9564 15.4662 25.9564 15.4662 26.0138C15.4662 26.3006 15.5256 26.5874 15.6444 26.8742L14.3377 26.9889C14.2189 27.0462 14.1595 27.1036 14.1595 27.161C14.1595 27.333 14.1595 27.5051 14.2189 27.6772C14.1001 27.6772 14.0407 27.6772 13.9813 27.6772C13.8625 27.5051 13.7437 27.4478 13.5655 27.3904C13.3279 27.2757 13.0903 27.2757 12.9121 27.3904C12.734 27.4478 12.6152 27.5625 12.4964 27.8493L11.249 27.2757L10.2393 27.5625C10.2393 27.4478 10.2393 27.3904 10.2393 27.2757C10.2393 27.1036 10.1799 27.1036 10.1799 27.1036C10.0611 27.0462 9.94231 27.1036 9.82352 27.161C9.64533 27.1036 9.40775 27.0462 9.22956 26.9889L8.51681 25.4975L6.9725 26.8742C6.9725 27.0462 7.0319 27.2183 7.0319 27.3904C7.0319 27.5625 6.9725 27.7346 6.9725 27.964L5.78457 27.5625H4.65604C4.59664 27.4478 4.59664 27.3904 4.59664 27.2757C4.59664 27.1036 4.53724 26.9889 4.53724 26.8742C4.41844 26.6447 4.24025 26.53 3.94327 26.5874H2.75534L1.32983 28.0787L0.617065 29.2259L1.7456 30.7173C1.7456 30.832 1.74561 30.8894 1.68621 31.0041C1.68621 31.1188 1.68621 31.2336 1.68621 31.2909C1.74561 31.4056 1.86439 31.463 2.04258 31.5204L2.57716 31.9793L3.17113 32.094L3.70569 32.3808C3.76509 32.1513 3.82448 32.1513 3.88387 32.2661C4.35904 32.094 4.83421 32.094 5.30938 32.2661C5.54697 32.3234 5.84397 32.4381 6.14095 32.5529C6.9725 32.8397 7.56645 33.2985 7.98223 34.0442L8.87317 34.5605L9.40776 35.7077L12.8527 34.4458C13.1497 34.3884 13.3279 34.4458 13.2685 34.7326L16.1196 34.4458L16.5353 34.0442L19.6833 33.8722L20.3961 33.0691L22.7126 33.7574L22.1186 35.4209L22.5344 36.5107L21.9998 42.9925L25.0884 44.8854L25.9794 46.5488L28.1176 46.9503L29.2462 46.5488L30.0777 48.0402L31.3845 48.327L32.3942 48.2123L32.0972 49.3021L33.5227 49.5889L33.8197 50.2773L36.0768 50.1052L36.3738 49.4742L36.9677 49.3021L37.5023 48.6138L37.6805 46.8356L39.3436 46.5488L41.0661 47.9255L42.1946 48.0402L41.957 49.9904L43.2044 50.6788V52.457L44.0953 53.3174L46.0554 50.1052L46.6493 50.5641L47.6591 50.9656L47.7779 52.1702L47.6591 52.7438L48.9064 54.9235L50.9259 55.0955L52.1732 51.0803L52.886 50.6788L53.3612 48.4991L54.4897 48.2123L54.7867 46.0326L55.737 46.1473L57.3407 44.5986L57.0437 43.6808H57.7565L58.885 44.7706H62.1518L63.0428 41.0422L63.8743 40.9275L64.4683 40.4686L67.6163 42.9925L71.2989 42.5909C71.3583 42.3041 71.4771 42.1894 71.7147 42.3041C71.8334 42.3041 71.9522 42.3615 72.0116 42.4189L73.556 41.6158L74.4469 39.6656C74.4469 39.5508 74.5063 39.4935 74.6251 39.4361C74.6845 39.4361 74.8033 39.4361 74.8627 39.4361V38.6904L76.8228 38.5757L77.8325 38.0021L77.7137 36.9123L77.1198 36.6255L76.8228 34.7326L78.4265 34.8473L80.5647 33.7574L83 30.6026L82.8218 29.7422L81.8715 29.2259L80.2678 28.8244C80.5647 28.7671 80.6241 28.595 80.3866 28.4229C80.3272 28.3082 80.2084 28.2508 80.0896 28.2508L80.5647 27.3904L81.1587 26.9889L81.3963 26.1858L81.8715 25.7843L81.5745 23.9488L81.1587 23.8341V22.8589L80.0896 22.4574L79.852 21.8838L79.555 21.6544L79.4362 20.1056L78.3077 20.6792C78.4859 20.2777 78.4858 19.9909 78.2483 19.7615C78.1889 19.7615 78.1889 19.7615 78.1295 19.8188C78.0107 19.9335 77.9513 20.0483 77.8325 20.1056C77.5355 19.9909 77.2385 19.9909 77.001 20.1056L77.1198 20.3924C77.1198 20.3924 77.1198 20.4498 77.1198 20.5072L76.2882 19.9909H75.4567L74.5657 20.2777L72.7244 21.8838L70.8831 21.7691L70.1704 21.1955H69.2794C68.8636 21.0234 68.7449 20.8513 68.923 20.6792C68.9824 20.5645 69.1012 20.4498 69.1606 20.3924L68.8636 19.1305C68.5072 18.9584 68.5072 18.7863 68.7448 18.6716C68.8636 18.6143 68.923 18.6143 69.0418 18.6143C68.923 18.1554 68.8042 17.9833 68.5666 18.2127L67.3193 16.2625L67.7351 15.2873L66.4284 14.4843L65.7156 14.3122L65.0029 13.3944V12.8208L64.2901 12.4193C64.5871 12.2472 64.5871 12.0752 64.4089 11.9031C64.1713 11.7884 63.9931 11.6736 63.7555 11.5589L62.4488 12.4193L61.3203 11.731C61.3203 11.9031 61.2609 11.9604 61.2015 11.9604C61.0233 11.9604 60.9045 11.9604 60.7263 11.8457L59.8948 12.0178L59.3008 12.8208L57.1625 10.3543L56.9249 9.37921L56.7467 8.11728L55.737 7.19951L56.034 5.36397H55.2024L53.5987 4.84773L52.4702 3.299L53.183 2.78275L53.4799 2.09442L52.1732 1.6929L50.7477 0.717773L49.7974 1.52082L48.9064 1.6929L47.6591 2.78275C47.4215 3.06955 47.4215 3.29899 47.5997 3.52843L47.3621 3.64316C47.2433 3.70052 47.1839 3.75788 47.0651 3.8726L47.3621 5.24925C47.3027 5.24925 47.2433 5.24925 47.2433 5.19189C47.1839 5.19189 47.1839 5.19189 47.1839 5.13453C47.0651 5.07717 47.0057 5.01981 46.9463 4.96245H46.7087C46.7087 5.01981 46.7681 5.07717 46.8869 5.19189C47.0057 5.30661 47.1245 5.36397 47.1839 5.53605L46.3524 6.3391C46.4712 6.28174 46.5306 6.28174 46.6493 6.28174C46.6493 6.28174 46.7087 6.28174 46.7087 6.3391L46.6493 6.39646C46.4118 6.56854 46.1742 6.68326 45.9366 6.91271C45.996 6.91271 46.1148 6.91271 46.2336 6.91271C46.1742 6.97007 46.2336 6.97007 46.2336 7.08479Z" fill="#C4DFE9" stroke="white" stroke-miterlimit="10"/>
</svg>
