<svg width="20" height="19" viewBox="0 0 20 19" fill="none" xmlns="http://www.w3.org/2000/svg">
<path d="M11.0666 2.69886L10.3539 1.7811L8.63136 1.09277L7.08704 2.58414L7.50283 1.37958H5.36455L5.48335 2.58414L4.05783 2.87094C3.93904 2.69886 3.76085 2.6415 3.64205 2.69886C3.52326 2.6415 3.34507 2.58414 3.28567 2.58414C3.22628 2.6415 3.22628 2.69886 3.22628 2.87094C3.22628 2.87094 3.22628 2.9283 3.22628 2.98566C3.10749 3.38719 2.8699 3.50191 2.51353 3.27247H1.2068L0.672231 5.33745C0.553438 5.50953 0.672231 5.56689 0.969213 5.45217L0.909813 5.62425V6.7141L1.38499 7.97604L1.2068 9.06588L3.04809 10.8441L2.81051 11.8192V12.7943L1.91956 13.5974L2.09774 14.8593L1.80076 16.3507L2.9293 15.7771L4.65179 15.5476L5.18637 15.7771L6.79006 15.2608L7.20584 14.5725L8.03739 15.3755L8.63136 15.6623L8.33437 16.2359L9.93809 17.7273C10.1757 17.7273 10.4132 17.7273 10.6508 17.7273L12.0764 17.4405L14.2146 14.4004L13.7395 13.9989L14.7492 13.3106C14.8086 13.5974 14.9274 13.6547 15.165 13.54C15.3432 13.4253 15.5807 13.3106 15.7589 13.1958L16.0559 12.5075L16.7687 12.6222L17.1844 11.6471L19.2039 10.8441L19.0257 9.86893L18.313 8.8938L18.61 7.68923L15.8777 7.80395L15.462 6.42729L14.0364 6.14049L13.5019 5.73897L12.9079 5.91105L11.3636 4.5344L11.8982 4.07552L10.8884 3.55927C10.9478 3.27247 11.0072 2.98566 11.0666 2.69886Z" fill="#C4DFE9" stroke="#002340" stroke-miterlimit="10"/>
</svg>
