<svg width="55" height="39" viewBox="0 0 55 39" fill="none" xmlns="http://www.w3.org/2000/svg">
<path d="M53.2382 8.79357L53.8322 8.50677L51.9909 6.90067L50.9811 6.21235L48.7835 7.01539L48.0113 7.81845L47.4173 7.99052L46.7046 9.1951L44.9821 9.65398L45.8136 8.27732L45.1603 7.13011L44.1505 6.61387C44.0911 6.78595 43.9723 6.78595 43.7348 6.72859C43.6754 6.67123 43.5566 6.72859 43.4378 6.78596C43.1408 6.72859 43.0814 6.55651 43.2596 6.32707L42.5468 7.01539L41.8341 7.13011C41.8935 7.07275 41.9529 6.95804 41.8935 6.90067C41.8935 6.84331 41.7747 6.78596 41.6559 6.78596C41.5371 6.84332 41.3589 6.90067 41.1213 7.01539C41.0619 7.01539 41.0025 7.07276 40.9431 7.18748C40.9431 7.3022 40.9431 7.41692 40.9431 7.589C40.9431 7.589 40.8837 7.64636 40.8837 7.70372C40.4086 7.81844 40.171 7.70372 39.9928 7.3022L40.2898 6.32707C40.468 6.15499 40.5867 6.04027 40.7055 5.86818C40.7649 5.6961 40.7649 5.52402 40.7055 5.35194L38.6861 3.86057L37.7357 3.68848L36.8448 4.54889L35.4192 4.14737L34.7065 2.19711L32.8652 1.50879L32.0336 2.08239L30.9645 3.28696L29.0044 4.14737C28.6481 4.20473 28.4105 4.31945 28.2323 4.43417C28.1135 4.54889 28.1135 4.66361 28.2917 4.72097C28.2917 4.77833 28.3511 4.8357 28.4105 4.95042C28.4105 5.06514 28.4698 5.23722 28.4698 5.35194L27.5789 5.92555V6.90067L27.4007 7.99052V8.10525H27.2819L26.8662 9.65398L26.7474 10.5717L25.3218 12.4073L25.0249 11.4322L24.3121 11.2601L23.8369 11.719L22.8866 11.9484C22.7084 12.1205 22.5896 12.1778 22.4708 12.1778C22.352 12.1778 22.2926 12.1205 22.1738 11.9484L22.055 12.1205V11.9484V11.8337H21.8769L20.8671 11.9484H20.7483V11.8337L17.3033 12.2352L17.0657 12.8088L16.056 12.9235L15.3432 14.1855L14.3335 13.6119L13.0268 13.7839L10.7697 12.8088L9.04721 13.2103L8.21566 12.8088L7.20591 13.7839L6.07738 13.3251H5.89919V13.2103L5.18644 12.522L5.06764 12.6367V12.522L4.94885 12.6367V12.8088H4.77065L3.93911 13.7839H1.08807L2.09781 14.9885L2.51359 15.6768L3.22635 15.9636L4.0579 15.8489L4.65186 16.5372C4.35488 16.7093 4.35488 16.8814 4.65186 17.1108L4.47367 18.1433L3.76092 18.3154L4.0579 18.8317L1.62265 21.1834L2.81058 22.7322L3.64212 23.1337L5.48342 24.7972L6.19618 26.1738L7.20591 26.9769L7.97806 28.0093L8.33444 28.0667L9.64117 27.5505H11.0667L13.205 27.7799L14.2147 28.4682L14.6305 29.1566L18.907 28.6403L20.3325 29.6154L23.4805 29.7302L24.3121 30.7053L23.5993 31.2215L23.0054 32.7703L24.4309 33.4586L23.8369 34.1469L24.7279 36.4987L25.8564 38.2769L27.2819 37.4738L26.4504 36.6134L27.6977 35.9251L28.4698 34.6632L30.133 35.1221L32.3306 33.4586C32.4494 33.5733 32.5682 33.6307 32.687 33.5733C32.8652 33.5733 32.984 33.4586 33.1622 33.2865C33.2216 33.2292 33.3404 33.1718 33.4592 33.0571C33.3404 32.9997 33.281 32.9424 33.281 32.885C33.281 32.7129 33.3404 32.5408 33.4592 32.3687L33.281 30.3038L33.9937 30.4185L34.5283 30.8774L35.5974 29.6154L36.8448 29.4434L37.1417 28.2388L38.6861 26.6901V25.1987L39.577 24.1088L41.6559 26.0017L42.5468 25.887L42.8438 25.0266L42.2498 24.3383L41.1213 24.2236L41.0025 22.8469L44.2693 22.4454L44.8633 23.2484C45.1009 23.1911 45.3385 23.1911 45.5166 23.2484C45.576 23.2484 45.6354 23.3058 45.6948 23.4205L46.4076 22.8469L46.8234 21.585L48.1301 21.1834L48.0113 19.6921L48.9616 19.2906L48.5459 18.4301L49.2586 17.9139L49.5556 17.455L50.9811 17.1108L50.3872 16.5372L50.2684 14.4723L49.8526 13.8987L49.0804 13.3251L48.2489 11.8337L48.9616 11.719L49.9714 11.1454H50.5653L50.8623 10.8585C51.0999 10.8012 51.3375 10.7438 51.5157 10.6291C51.5751 10.6291 51.6345 10.6291 51.6939 10.5717L51.8127 9.7687L53.0006 9.88342L53.2382 8.79357Z" fill="#C4DFE9" stroke="white" stroke-miterlimit="10"/>
</svg>
