<svg width="57" height="50" viewBox="0 0 57 50" fill="none" xmlns="http://www.w3.org/2000/svg">
<path d="M33.6821 3.05393C33.6821 3.05393 33.6821 3.11129 33.6821 3.16865L33.3852 4.14378C33.3258 4.31586 33.3258 4.43058 33.2664 4.43058C33.1476 4.5453 33.0288 4.54531 32.91 4.48795C32.7318 4.60267 32.5536 4.60267 32.3754 4.54531L31.6627 4.94683L29.8214 4.25851L28.3959 3.34074L27.6831 2.07881L26.3764 1.39048L24.8321 1.5052L24.2381 1.792L24.0005 2.88185L22.8126 2.76713L22.6938 3.57017C22.6344 3.62753 22.575 3.62754 22.5156 3.62754C22.3374 3.74226 22.0998 3.79962 21.8622 3.85698L21.5653 4.14378H20.9713L19.9615 4.71738L19.2488 4.83211L20.0803 6.32348L20.8525 6.89709L21.2683 7.47069L21.3871 9.53567L21.981 10.1093L20.5555 10.4534L20.2585 10.9123L19.5458 11.4286L19.9615 12.289L19.0112 12.6905L19.13 14.1819L17.8233 14.5834L17.4075 15.8453L16.6947 16.4189C16.6353 16.3042 16.576 16.2469 16.5166 16.2469C16.3384 16.1895 16.1008 16.1895 15.8632 16.2469L15.2692 15.4438L12.0024 15.8453L12.1212 17.222L13.2498 17.3367L13.8437 18.025L13.5467 18.8854L12.6558 19.0002L10.5769 17.1073L9.68596 18.1971V19.6885L8.14165 21.2372L7.84467 22.4418L6.59734 22.6139L5.52821 23.8758L4.99365 23.4169L4.28088 23.3022L4.45908 25.3672C4.34029 25.5393 4.28088 25.7113 4.28088 25.8834C4.28088 25.9408 4.34029 25.9981 4.45908 26.0555C4.34029 26.1702 4.22149 26.2276 4.1621 26.2849C3.98391 26.457 3.8651 26.5717 3.68692 26.5717C3.56812 26.6291 3.44933 26.5717 3.33053 26.457L1.13287 28.1205L2.73657 29.6119L2.55839 30.3002L2.1426 31.5621L3.44933 33.7418C3.50873 33.7418 3.62752 33.7418 3.74632 33.7418C3.9839 33.7992 4.1027 33.9139 4.1621 34.0286C4.28089 34.2007 4.22149 34.3154 4.1621 34.5449L4.99365 37.2982L5.46881 37.6997L6.30036 37.585L7.13192 37.9865L7.01312 36.6098L8.73562 35.6921L12.4182 37.4702L14.7347 34.5449L14.9722 32.652L16.5166 33.455L19.2488 31.9636L20.6743 32.652L21.5653 35.9215L21.1495 37.585L21.5653 38.2733L22.6938 38.9616L25.8418 40.0515L26.8515 39.2484L25.426 37.6997L30.2372 36.4951L30.4153 38.1586C30.5935 38.3307 30.7717 38.5027 30.9499 38.6748L31.2469 39.5352L32.6724 40.453L33.8009 40.7398L34.5137 42.9769L33.9791 44.5829L36.1174 47.2215L38.0775 47.6231V48.4835L40.5127 48.1967L41.2255 47.5083L41.9382 45.9596L43.3638 45.8449L44.1953 44.8697L44.4923 43.3784L51.0853 39.9367L50.9071 38.8469H52.0357C52.1544 38.8469 52.2139 38.7895 52.2733 38.7895C52.5702 38.388 52.7484 37.9865 52.8078 37.585C52.8078 37.5276 52.7484 37.4702 52.6296 37.4702C52.5702 37.4129 52.5702 37.3555 52.5702 37.3555C52.5702 37.0687 52.689 36.8966 52.8672 36.7246C52.986 36.6098 53.1048 36.4951 53.3424 36.4951L53.7582 34.3154L55.3619 34.0286L55.8964 33.3403L54.6491 32.4799L53.0454 30.9885L52.0357 31.2753C51.9169 31.1606 51.7981 31.1032 51.6199 31.1032C51.5605 31.1032 51.4417 31.1606 51.3229 31.2753H49.7786L46.8088 29.4971L47.7591 27.8337L46.2148 26.7438L45.9178 26.1702L44.7893 25.3672L43.4826 22.6139L43.9577 22.0403L43.245 19.4017L41.8195 19.0002L41.1067 18.025L41.2255 17.222L42.2352 16.7057C42.2352 16.7057 42.2946 16.7631 42.2946 16.8205C42.4134 17.1073 42.5916 17.1073 42.7698 16.9925C42.8886 16.8778 42.948 16.8778 43.0074 16.9925C43.245 16.9925 43.3044 16.9352 43.245 16.7057C43.1856 16.5337 43.1262 16.4189 43.0668 16.2469L43.9577 15.5585L43.7795 14.5834L41.2255 12.6905L42.5322 11.1418L42.354 10.3387L42.948 9.07679L42.354 7.18389L43.3638 6.32348L43.0668 5.40572L42.5322 4.54531V3.16865L42.2352 2.36561L41.5225 1.5052L39.0872 0.702148L38.2557 1.10368V2.19353L37.2459 3.16865L36.9489 3.85698L36.8302 4.83211L35.2265 2.88185L34.2167 3.05393C33.8009 2.70977 33.6821 2.70977 33.6821 3.05393Z" fill="#C4DFE9" stroke="white" stroke-miterlimit="10"/>
</svg>
