<svg width="62" height="70" viewBox="0 0 62 70" fill="none" xmlns="http://www.w3.org/2000/svg">
<path d="M59.5997 19.9639L58.59 19.5623L57.996 19.1035L56.0359 22.3157L55.145 21.4552V19.6771L53.8977 18.9887L54.1352 17.0385L53.0067 16.9238L51.2842 15.5471L49.6211 15.8339L49.4429 17.6121L48.9084 18.3004L48.3144 18.4725L48.0174 19.1035L45.7603 19.2755L45.4634 18.5872L44.0378 18.3004L44.3348 17.2106L43.3251 17.3253L42.0184 17.0385L41.1868 15.5471L40.0583 15.9486L37.92 15.5471L37.0291 13.8837L33.9404 11.9908L34.475 5.50902L34.0592 4.41917L34.6532 2.75571L32.3367 2.06739L31.624 2.87044L28.476 3.04251L28.0602 3.44404L25.2092 3.73085C25.2686 3.44404 25.0904 3.38668 24.7934 3.44404L21.3484 4.70597L20.8138 3.55876L19.9229 3.04251C19.5071 2.29683 18.9131 1.83795 18.0816 1.55114C17.7846 1.43642 17.4876 1.3217 17.25 1.26434C16.7749 1.09226 16.2997 1.09226 15.8245 1.26434C15.7651 1.14962 15.7057 1.14962 15.6463 1.37906L15.1118 1.09226L14.5178 0.977539L14.102 2.75571L13.2705 3.44404L14.696 3.84557L14.2208 4.70597L12.7953 5.79582V7.40192L11.548 8.1476L12.5577 9.35217L12.6765 10.1552L10.5976 14.8588L9.29089 14.572V15.4324L9.1721 16.809L7.44961 17.0385L6.20228 17.8989L6.32106 18.5872H5.48952L4.77677 19.1035C4.59858 18.874 4.42039 18.7593 4.1828 18.5872C4.00461 18.4725 3.94522 18.5299 3.88582 18.874L4.59857 20.0786L2.46029 20.3654L3.76702 21.4552C3.76702 21.6273 3.70763 21.742 3.58884 21.8568C3.41065 22.0288 3.17306 22.0289 2.87607 21.9141L2.63849 21.0537L1.45056 20.939L2.16331 25.069L3.17306 25.6999L7.03383 25.1837L8.16236 25.6999L9.1721 26.8471L8.75632 30.002L9.0533 31.4933L9.76607 31.8949L9.29089 32.4685C9.23149 32.5832 9.2315 32.6405 9.1721 32.7553C9.1721 32.8126 9.1721 32.9274 9.1721 32.9847C9.76607 35.5659 10.1224 38.0898 10.36 40.6137C10.5976 42.9654 10.5976 45.2599 10.36 47.6116C10.36 47.6116 10.36 47.6116 10.3006 47.6116L9.29089 48.7015L12.4389 51.3401L12.7359 50.3649C13.2705 50.8238 13.8644 51.2827 14.4584 51.7416C14.5772 51.9137 14.7554 52.0284 14.8742 52.0858C15.0524 52.2578 15.2899 52.3152 15.4681 52.3152C16.8937 52.7167 18.3192 53.0609 19.7447 53.4051L20.2792 53.9213L21.4078 54.2081L23.546 53.9213L23.843 56.5599L23.1303 56.9614L23.4273 58.0513L20.5762 60.2883L20.8732 61.4929L20.5762 62.3533L21.289 63.3284L29.1293 65.2213L30.1391 65.9097L29.4263 67.4584L30.436 66.4833L31.6834 66.8848C31.8022 67.0569 31.921 67.2289 32.0398 67.3437C32.0991 67.401 32.1585 67.4584 32.2773 67.4584C32.3367 67.401 32.4555 67.3437 32.5743 67.2863L33.9998 66.4833L34.7126 66.598L35.1284 66.1964C35.2472 66.1391 35.3066 66.0817 35.366 66.0244C35.4254 65.6802 35.4253 65.336 35.4253 64.9345L36.1381 63.4432L37.6824 63.5579L38.6922 62.8695L38.9891 61.9518L40.2365 62.0665L39.8207 61.0914L41.2462 60.5751L43.0875 57.2482L46.2355 56.4452V55.0685L46.6513 54.6096L47.364 52.0284L48.0768 51.7416L49.0865 51.0533L48.6114 48.7015L50.0369 45.9482L49.8587 44.4568L51.8782 40.7284V40.0401L52.4721 38.7781L53.4225 38.2619L55.7389 38.5487L56.8675 36.0248V35.1071L56.4517 34.2466L56.7487 33.5583L55.442 32.0669L56.9863 27.937L57.8772 28.4532L58.293 27.937L57.5802 27.2487L59.0058 26.3883L60.847 24.4954V23.9217L59.5997 21.742L59.7185 21.1684L59.5997 19.9639Z" fill="#C4DFE9" stroke="white" stroke-miterlimit="10"/>
</svg>
