<svg width="58" height="49" viewBox="0 0 58 49" fill="none" xmlns="http://www.w3.org/2000/svg">
<path d="M19.7099 3.24696L19.1159 2.96016L18.2844 2.73071L18.4032 4.62361L18.1062 5.88554L17.0964 6.57387L18.1062 7.37692L19.2347 11.5069L18.9971 12.482L18.2844 13.1703H17.0964L16.9777 15.35C16.9183 15.35 16.8589 15.35 16.8589 15.4074C16.7995 15.4074 16.7401 15.4647 16.7401 15.5221C16.7401 15.5795 16.7995 15.6942 16.8589 15.8089H15.9679L16.3837 17.5871L17.2746 17.3003L17.6904 19.2505C17.5716 19.3079 17.3934 19.3653 17.2746 19.48C17.0964 19.5947 17.0964 19.8242 17.2746 20.0536C17.334 20.2257 17.3934 20.283 17.5716 20.3404V20.1683L17.6904 20.3404L20.2445 20.0536L20.8384 20.7419C20.8384 20.9714 20.779 21.2008 20.6602 21.3729C20.6602 21.4302 20.5414 21.4302 20.3633 21.4302C20.0663 21.4876 19.7693 21.6023 19.6505 21.7744C19.4723 21.9465 19.4129 22.2333 19.4129 22.5201L18.2844 23.0937L17.6904 23.6099L18.522 25.1587L18.9971 24.9866L20.0663 26.1338L18.2844 26.5353L16.2649 27.6252C16.3837 27.7973 16.5025 27.912 16.6807 27.912C16.9183 27.8546 17.1558 27.7399 17.4528 27.5678C17.4528 27.5105 17.5122 27.5105 17.5716 27.5105L18.522 28.715L19.5317 29.4034L18.1062 29.977V30.0917L17.9874 29.977H15.5521L15.1364 29.2886L13.2951 29.5754L12.9981 29.0018L11.8696 29.1165C11.929 29.2886 11.8696 29.4607 11.7508 29.5754C11.6914 29.6328 11.6914 29.5754 11.5726 29.5181C11.4538 29.4607 11.2756 29.346 11.1568 29.2886L9.73128 29.0018L9.4343 28.4282L8.72154 29.977L8.42456 31.6404C8.24637 31.583 8.06818 31.6404 7.7118 31.8125C7.47422 31.9272 7.23663 32.1567 7.11784 32.4435C7.05844 32.5582 6.99904 32.6156 6.99904 32.7303L6.16749 33.0171H4.97957L3.31646 35.1968L2.42552 35.8851L2.30672 36.4587L1.71276 37.147C1.47517 37.147 1.29698 37.2618 1.17819 37.3191C1.0594 37.3765 1 37.4338 1 37.5486C1 37.6059 1.0594 37.7206 1.17819 37.8354L1.29698 37.9501H1.17819L3.73224 38.3516L5.69232 37.6633L6.16749 37.2617L7.8306 37.6633L9.01853 37.5486L9.25611 38.3516L10.2659 38.9252L11.5726 40.015L11.1568 40.9902L10.9786 42.1948L9.85008 42.4816L9.73128 43.7435C9.96887 43.7435 10.1471 43.8582 10.2065 44.0303C10.3252 44.145 10.3252 44.3171 10.2659 44.5465L9.96887 45.5217L11.1568 46.6115V47.4719C11.2756 47.4146 11.335 47.644 11.3944 47.9882L12.1071 47.7014L13.2951 45.8085L13.1169 45.1201L14.0078 44.4318L12.2853 44.5465C11.8696 44.3171 11.8696 44.0877 12.2259 43.8582C12.2853 43.8008 12.4041 43.8008 12.5823 43.8582L13.1169 43.342L15.5521 44.145L17.9874 43.0552L18.7002 42.08V40.8181L19.5317 40.3018H21.2542L21.373 39.3267L21.67 38.5237L25.115 34.91C25.3526 35.0247 25.6495 35.082 25.9465 35.082C26.0059 35.082 26.0653 35.0247 26.1247 34.91C26.1841 34.8526 26.3029 34.7379 26.3623 34.6232C26.4217 34.6232 26.4811 34.5658 26.5405 34.5084L27.372 34.2216L27.966 34.6232L31.6486 35.082L32.0644 33.7054H33.3711L33.7869 32.0419L34.7966 31.7551C34.7966 32.3861 35.153 32.5008 35.8063 32.1567L36.3409 32.4435L38.3604 32.845H41.6272C41.152 32.3287 41.2114 31.9272 41.6866 31.6404C41.9242 31.583 42.043 31.4683 42.2212 31.3536C42.3994 31.1815 42.5775 31.0668 42.8151 30.9521H42.8745L42.5181 29.977V28.8871C42.6369 28.5429 42.8151 28.2561 43.0527 28.0267L43.1715 28.1988C43.1715 28.1988 43.1715 28.2561 43.1715 28.3135C43.4091 28.2561 43.5873 28.1988 43.7655 28.1988H43.8843C44.0625 28.4282 44.1812 28.6003 44.0625 28.7724C44.0625 28.7724 44.0625 28.8298 44.0625 28.8871C44.1218 29.1166 44.2406 29.1166 44.4782 29.0018C44.5376 28.8871 44.6564 28.8298 44.7752 28.715L45.6068 29.2886V27.6252L45.785 26.6501L49.4675 26.1338L49.8833 25.9617L50.7743 26.6501L51.9028 25.847L52.0216 23.8967L52.6155 23.6099L52.0216 23.2084L51.487 21.3155L51.6058 20.8566L51.487 20.1683L52.1998 19.3653L52.4968 17.415L52.1998 12.8835L52.9125 12.5967L52.6155 11.5069L53.6253 10.5317L55.4666 10.417L56.4763 9.61397L51.784 6.00027L52.6155 5.31193L52.0216 5.02513L51.0712 2.73071L49.7645 2.44391L49.4675 2.84544L48.933 2.96016L47.745 4.10737L45.3692 4.62361H45.0722L45.191 4.50889V4.33681L45.3692 4.50889L45.488 4.10737L45.6068 3.93529V3.82057V3.64848H45.785L45.6068 3.53376H45.785L45.9037 3.13224V2.96016L46.4977 1.75558L45.6068 0.895176L43.3497 2.73071L42.5181 2.96016L42.2212 3.41904L41.0926 4.10737L40.4987 4.62361L40.0829 3.64848L39.1919 3.41904C39.1325 3.41904 39.0138 3.4764 39.0138 3.4764V3.41904C38.9544 3.01752 38.895 2.9028 38.7762 2.96016C38.3604 2.96016 38.1228 3.07488 38.2416 3.41904L37.0537 2.84544L36.1033 1.06726L34.7966 1.8703L34.2026 1.35406L33.6681 1.75558L30.5201 2.55864L30.1043 3.41904L29.8073 2.84544L28.3818 2.55864L27.372 1.75558L27.0751 0.780457L26.1247 1.18198L23.9864 2.44391L23.8083 3.13224L21.1354 2.96016L20.3633 4.10737L19.7099 3.24696Z" fill="#C4DFE9" stroke="white" stroke-miterlimit="10"/>
</svg>
