<svg width="95" height="64" viewBox="0 0 95 64" fill="none" xmlns="http://www.w3.org/2000/svg">
<path d="M89.4917 13.068L88.6601 13.8711L87.888 13.9858L87.7692 13.8711H86.5813L85.0369 14.9609L84.0272 14.6741L83.3144 15.133C83.6708 15.133 83.6708 15.2477 83.3738 15.3624C83.3738 15.3051 83.3738 15.2477 83.3144 15.133L82.3047 15.2477L81.2356 15.133L80.6416 17.198L80.404 16.9112L79.8101 16.6244L77.9688 16.7391L76.1275 16.0508L74.405 13.5843L73.6922 13.4695V12.8959L73.514 12.0929L71.9697 9.74111V9.05278L71.5539 8.47918L70.5442 5.89795C70.4254 5.43907 70.1878 5.38171 69.8314 5.78323C69.772 5.84059 69.7127 5.95531 69.6533 6.01267C69.6533 6.07003 69.5938 6.1274 69.5345 6.18476L67.812 5.89795L66.5646 3.14465L65.8519 2.57104L65.4361 2.74313L63.4166 1.19439C63.2978 1.19439 63.179 1.13703 63.0602 1.07967C62.9414 1.02231 62.8227 1.02231 62.7633 1.13703C62.6445 1.19439 62.5851 1.25175 62.5257 1.30911C62.5257 1.36647 62.4663 1.36647 62.4069 1.36647L62.2881 2.57104L60.9814 2.45632L60.5656 2.74313L59.8528 2.57104H57.8334L57.2988 4.92282L54.1508 4.11978L53.141 4.63602L51.8937 5.03755C51.8937 5.55379 51.6561 5.66851 51.2403 5.43907C51.0622 5.38171 50.884 5.32435 50.7058 5.32435L49.8742 6.18476L48.8645 7.38933L47.9735 7.10252L47.5578 5.72587L46.3698 5.03755L45.8353 5.32435L44.4097 4.8081L42.806 5.49643L42.7467 5.61115C42.5685 5.49643 42.5091 5.38171 42.3903 5.20963H41.4399L40.9054 4.11978L40.0144 3.14465L37.6385 3.43145L37.0446 2.57104C36.8664 2.51368 36.807 2.45632 36.807 2.39896C36.6882 2.11216 36.6882 1.88272 36.7476 1.59592C36.5694 1.768 36.3318 1.82536 36.1536 1.88272C36.0942 1.94008 36.0942 1.94008 36.0348 1.88272L31.6395 2.57104L30.7486 2.45632L29.2042 2.97257L27.8975 3.14465L26.5908 3.66089L26.175 4.2345L24.8683 4.63602L23.1458 4.11978C22.9082 4.5213 22.6706 4.8081 22.433 5.03755C22.3736 5.09491 22.3143 5.09491 22.1955 4.98019C22.1361 4.92283 22.0173 4.8081 21.9579 4.8081C21.7797 4.75074 21.6015 4.75074 21.4233 4.8081L21.3045 4.92282L21.4233 6.29948L21.3045 7.79085L19.4632 9.4543L19.7602 10.1426L18.8693 10.4294L18.1565 11.6914L17.1468 12.7812L16.731 14.6741L17.1468 15.6492L16.6122 16.5097L15.8994 16.7391L15.1867 18.1157C15.4242 18.2878 15.4837 18.5173 15.3055 18.8041C15.1867 18.9188 15.0679 19.0335 14.8897 19.0909L14.5927 19.6645L13.7612 20.869C13.7018 20.9264 13.6424 20.9264 13.583 20.9264V20.869H13.5236C13.4048 21.2706 13.286 21.5574 13.1078 21.7868C13.0484 21.9015 12.9296 21.9015 12.692 21.8442L12.5138 22.5325L11.8011 22.7046L9.24701 21.4427L8.95003 22.4178L7.22754 23.6224L5.08926 23.1061L4.6735 23.5076L4.97048 23.9092L4.5547 25.2858L2.53522 27.064C2.47582 27.064 2.47582 27.064 2.47582 27.064C2.41642 27.0066 2.41643 27.0066 2.35704 27.0066C2.17885 26.8919 2.06004 26.9493 1.88185 27.1787C1.88185 27.2361 1.82247 27.2934 1.76307 27.4081C1.76307 27.4655 1.76306 27.5229 1.88185 27.5802C1.94125 27.6376 2.00064 27.695 2.11944 27.7523L0.990906 28.8995L2.8322 30.5056L4.37651 30.3909L5.68323 31.0792L6.39599 32.3412L7.8215 33.2589L9.6628 33.9472L10.3756 33.5457C10.5538 33.6031 10.7319 33.6031 10.9101 33.4884C11.0289 33.5457 11.1477 33.5457 11.2665 33.431C11.3259 33.431 11.3259 33.3163 11.3853 33.1442L11.6823 32.1691C11.6823 32.1117 11.6823 32.0543 11.6823 32.0543C11.6823 31.7102 11.8605 31.7102 12.2168 32.0543L13.2266 31.8823L14.8303 33.8325L14.9491 32.8574L15.2461 32.1691L16.2558 31.1939V30.1041L17.0874 29.7026L19.5226 30.5056L20.2354 31.366L20.5323 32.1691V33.5457L21.0669 34.4061L21.3639 35.3239L20.3542 36.1843L20.9481 38.0772L20.3542 39.3391L20.5323 40.1422L19.2256 41.6909L21.7797 43.5838L21.9579 44.5589L21.0669 45.2473C21.1263 45.4194 21.1857 45.5341 21.2451 45.7062C21.3045 45.9356 21.2451 45.993 21.0075 45.993C20.9481 45.8782 20.8887 45.8782 20.7699 45.993C20.5918 46.1077 20.4136 46.1077 20.2948 45.8209C20.2948 45.7635 20.2354 45.7062 20.2354 45.7062L19.2256 46.2224L19.1068 47.0255L19.8196 48.0006L21.2451 48.4021L21.9579 51.0407L21.4827 51.6143L22.7894 54.3676L23.918 55.1706L24.2149 55.7442L25.7593 56.8341L24.8089 58.4976L27.7787 60.2757H29.323C29.4418 60.161 29.5606 60.1036 29.62 60.1036C29.7982 60.1036 29.917 60.161 30.0358 60.2757L31.0455 59.9889L32.6492 61.4803L33.8966 62.3407C33.8966 61.8818 33.956 61.4803 34.1935 61.0214C34.3717 60.6199 34.6687 60.3331 35.0251 60.2184C35.3221 60.161 35.6785 60.2757 35.9754 60.6199C36.213 60.9067 36.3912 61.3082 36.4506 61.9392L37.6385 62.0539L37.8761 62.9143C38.1731 63.029 38.4107 63.029 38.5889 62.8569C38.7077 62.7422 38.7671 62.6275 38.7671 62.4554L37.4604 61.3656L39.5986 61.0788L38.8859 59.8742C38.9453 59.53 39.0047 59.4727 39.1829 59.5874C39.4204 59.7595 39.5986 59.8742 39.7768 60.1036L40.4896 59.5874H41.3211L41.2023 58.8991L42.4497 58.0387L44.1722 57.8092L44.2909 56.4326V55.5722L45.5977 55.859L47.736 51.1554L47.6172 50.3524L46.6074 49.1478L47.8547 48.4021V46.796L49.2803 45.7062L49.7554 44.8457L48.3299 44.4442L49.1615 43.7559L49.5772 41.9777L49.0427 41.5188C48.8645 41.4615 48.7457 41.4041 48.6863 41.2894C48.6863 41.232 48.6863 41.1173 48.6863 41.0026C48.7457 40.8879 48.7457 40.8305 48.7457 40.7158L47.6172 39.2244L48.3299 38.0772L49.7554 36.5858H51.0028C51.2997 36.5285 51.4779 36.6432 51.5967 36.8726C51.5967 36.9874 51.6561 37.1021 51.6561 37.2742C51.6561 37.3889 51.6561 37.4462 51.7155 37.561H52.8441L54.032 37.9625C54.032 37.733 54.0914 37.561 54.0914 37.3889C54.0914 37.2168 54.032 37.0447 54.032 36.8726L55.5763 35.496L56.289 36.9874C56.4672 37.0447 56.7048 37.1021 56.883 37.1594C57.0018 37.1021 57.1206 37.0447 57.2394 37.1021C57.2394 37.1021 57.2988 37.1021 57.2988 37.2742C57.2988 37.3889 57.2988 37.4462 57.2988 37.561L58.3085 37.2742L59.5559 37.8478C59.6746 37.561 59.7934 37.4462 59.9716 37.3889C60.1498 37.2742 60.3874 37.2742 60.625 37.3889C60.8032 37.4462 60.922 37.5036 61.0408 37.6757C61.1002 37.6757 61.1596 37.6757 61.2783 37.6757C61.2189 37.5036 61.2189 37.3315 61.2189 37.1594C61.2189 37.1021 61.2784 37.0447 61.3971 36.9874L62.7039 36.8726C62.5851 36.5858 62.5257 36.299 62.5257 36.0122C62.5257 35.9549 62.5851 35.9549 62.6445 36.0122C62.7633 36.0696 62.8821 36.1843 62.9415 36.3564C63.0009 36.3564 63.0008 36.4137 63.0008 36.4711C63.1196 36.5858 63.2384 36.5858 63.3572 36.5285C63.476 36.4137 63.5948 36.299 63.7136 36.1843L63.8324 34.9224C64.1294 34.6929 64.4264 34.5782 64.664 34.5782L64.6046 34.5209C64.4858 34.3488 64.4264 34.2341 64.4264 34.1193C64.3076 34.062 64.1888 34.062 64.1294 34.062C64.0106 34.1193 63.8918 34.062 63.773 34.0046C63.6542 34.0046 63.5354 33.8899 63.4166 33.6604C63.4166 33.6604 63.4166 33.6031 63.4166 33.5457C63.5948 33.6031 63.773 33.6031 63.9512 33.5457C64.07 33.4884 64.1888 33.431 64.2482 33.2589L62.5851 31.4807L63.1196 30.7924L63.0008 28.8995L63.7136 27.7523L64.4264 27.6376L65.1391 28.3259L65.4361 27.5229L66.6834 27.9244C66.8616 27.8097 67.0398 27.6949 67.218 27.5802C67.2774 27.5229 67.3368 27.4655 67.2774 27.4081C67.2774 27.2934 67.218 27.2361 67.0992 27.2361L67.812 26.5477L68.5247 26.2609C68.8811 26.2609 69.1187 26.2036 69.3563 26.0315C69.5939 25.9168 69.7127 25.7447 69.7127 25.5726L76.2463 26.6625C76.3057 26.7198 76.3651 26.7198 76.3651 26.7198C76.5432 26.7198 76.662 26.7198 76.7808 26.6051C76.7808 26.5477 76.7808 26.4904 76.7808 26.433C76.7214 26.433 76.7214 26.433 76.662 26.433C76.5432 26.2609 76.4838 26.1462 76.3651 25.9741L77.256 25.8594L78.2657 26.2609L79.8101 25.1711V24.4828L80.5228 24.196V23.2208C80.5822 23.2782 80.6416 23.3355 80.6416 23.3929L80.8198 23.565C80.8792 23.5076 80.998 23.3355 80.998 23.1061C80.998 23.0487 81.0574 22.9914 81.1168 22.9914C81.1168 22.934 81.1762 22.934 81.2356 22.934C81.1762 23.2208 81.295 23.5076 81.4732 23.7944C81.5326 23.7944 81.4732 23.8518 81.3544 23.9092C81.5326 24.0239 81.6513 24.0812 81.7107 24.1386L81.6514 24.0812L82.5423 23.3929H83.2551L84.3836 22.8193C84.5618 22.8767 84.74 22.934 84.9182 23.1061C84.9776 23.1061 85.0369 23.1635 85.0963 23.2208C85.1557 23.2208 85.1557 23.2208 85.2151 23.1635C85.2745 23.1635 85.2745 23.1061 85.3339 23.0487C85.3933 22.934 85.4527 22.8193 85.5121 22.7046C85.5121 22.6472 85.5121 22.5899 85.5121 22.5325C85.6903 22.3604 85.9279 22.1883 86.1655 22.0736L86.1061 21.9589C86.1061 21.9015 86.1061 21.7868 86.1061 21.7295L89.1947 18.5746L89.7887 18.2878L90.0856 18.6893L91.2142 19.263C91.5706 19.3777 91.7488 19.263 91.7488 18.9188C91.8082 18.7467 91.7487 18.5746 91.63 18.4025H92.3427L93.2337 17.198C93.1743 17.3127 93.1743 17.4274 93.2337 17.4848L93.2931 17.4274C93.3524 17.3127 93.3524 17.198 93.2931 17.0833C93.2931 16.9685 93.2337 16.9685 93.2337 16.9112C93.1149 16.9112 92.9961 16.9112 92.9367 16.9112C93.1743 16.6817 93.4118 16.567 93.6494 16.3949L93.7088 16.3376C93.7088 16.2802 93.6494 16.2802 93.6494 16.2802C93.5306 16.2802 93.4712 16.2802 93.3525 16.3376L94.184 15.5345C94.1246 15.3624 94.0058 15.3051 93.887 15.1904C93.7682 15.0756 93.7088 15.0183 93.7088 14.9609H93.9464C94.0058 15.0183 94.0652 15.0756 94.184 15.133C94.184 15.1904 94.184 15.1904 94.2434 15.1904C94.2434 15.2477 94.3028 15.2477 94.3622 15.2477L94.0652 13.8711C93.7088 13.5843 93.4712 13.5843 93.2931 13.8137C93.2931 13.8711 93.2337 13.9284 93.2337 13.9858C93.0555 13.9284 92.9961 13.9284 92.9367 13.9858C92.6991 14.3299 92.5209 14.3299 92.4021 13.9858C92.2833 13.8137 92.2239 13.6416 92.2239 13.4695L91.2142 13.8711L89.4917 13.068Z" fill="#C4DFE9" stroke="white" stroke-miterlimit="10"/>
</svg>
