<svg width="65" height="75" viewBox="0 0 65 75" fill="none" xmlns="http://www.w3.org/2000/svg">
<path d="M30.3167 14.5862H29.0099L28.4754 14.873L26.8717 14.5862L24.6146 15.676L21.1696 15.3892L19.9223 15.5613L19.3283 18.3146L17.487 19.5192L16.7743 31.106L15.8833 31.5075L15.4675 32.3679L15.3488 35.236L13.2105 35.3507C13.1511 35.8095 13.0323 36.2111 12.9729 36.6126H12.9135C12.8541 36.67 12.7947 36.7273 12.7947 36.7273C12.6165 36.7273 12.4977 36.7273 12.3195 36.7273L10.894 35.8096L9.94368 36.8994L8.57755 35.9243L8.04299 37.5877L9.05273 40.8573L8.51816 41.0294L8.04299 41.5456L8.22118 42.406L6.79566 42.9223L5.78592 42.406L5.31075 42.9223L4.24161 43.6106L3.35066 43.8974L3.23187 42.406H1.39058L0.499634 41.8324V42.8075L0.915407 43.2091V44.471L1.62817 44.8725L2.10334 45.6756L2.93489 46.1345L4.06342 47.2243C4.24161 47.1669 4.4198 47.1096 4.59799 47.1669C4.71679 47.2243 4.83558 47.339 4.95437 47.5111L5.19196 48.4289H6.37989L9.05273 50.0923L9.76548 50.9527H10.3594L11.0722 51.6411L12.2007 52.1573C12.2007 52.0999 12.2601 52.0426 12.3195 52.0426C12.4977 52.0426 12.6165 52.0426 12.7947 52.0426C13.3293 51.9852 13.5075 52.1573 13.2699 52.5588C13.2699 52.6162 13.2105 52.6735 13.2105 52.7309L14.339 53.4192L14.4578 54.6238L14.042 55.8857C14.1608 56.0578 14.2796 56.1725 14.3984 56.1725C14.5766 56.2873 14.6954 56.2299 14.8736 56.1152C14.933 56.1152 14.9924 56.0578 15.0518 56.0005C15.23 56.1152 15.4082 56.1725 15.5863 56.1152C15.6457 56.1152 15.7051 56.0578 15.7645 55.8857C15.8239 55.8857 15.8239 55.8857 15.8833 55.8857L15.7645 56.9756L16.4773 57.1477L15.1706 58.2375L16.5961 58.0654L17.0713 59.3274C17.0119 59.3274 16.9525 59.3274 16.9525 59.3274C16.8337 59.2127 16.7743 59.1553 16.7149 59.0979C16.5367 59.0406 16.4773 59.1553 16.4773 59.4421L18.0216 59.7289C18.1404 59.7289 18.1998 59.7289 18.1998 59.7289C18.1404 59.9583 18.0216 60.1878 17.9028 60.4172L17.6058 61.3924L19.4471 61.7939L17.6058 62.6543L19.4471 63.3426L19.3283 64.2604C19.3283 64.3751 19.3877 64.4325 19.5065 64.5472C19.6253 64.6619 19.8035 64.6619 19.9223 64.6045C20.0411 64.5472 20.1599 64.4324 20.2193 64.3177C20.3381 64.2604 20.4569 64.1457 20.635 64.1457L20.4569 64.9487C20.3975 65.0061 20.3381 65.0634 20.3381 65.1208C20.0411 65.1208 19.9223 65.2355 19.9817 65.4649C20.0411 65.5223 20.1005 65.5797 20.1599 65.6944L21.1696 64.5472C21.1102 64.5472 21.0508 64.4325 21.0508 64.4325C20.8726 64.2604 20.8726 64.1457 21.1102 63.9736C21.1696 63.9736 21.2884 63.9736 21.4666 64.0309L21.8824 65.2355L22.8921 64.2604L22.4763 65.6944C22.4169 65.8091 22.4169 65.9238 22.4169 66.0385C22.4763 66.0959 22.5357 66.1533 22.5951 66.2106C22.9515 66.1533 23.1891 66.0959 23.4861 65.9812C23.5455 65.9812 23.6049 65.9812 23.6049 65.9812C23.6049 66.0959 23.6049 66.268 23.5455 66.4401C23.5455 66.4974 23.4861 66.4974 23.4861 66.4974L21.7636 66.2106L21.5854 67.3005L23.6049 67.1858V68.1609L24.7334 67.8741C24.7334 67.9888 24.7928 68.0462 24.8522 68.0462C25.1492 68.2756 25.4462 68.2756 25.7431 68.1609C25.8025 68.1035 25.7431 68.0462 25.6837 67.8741C25.6243 67.7594 25.565 67.5873 25.4462 67.4726L25.8619 66.8989L30.1385 68.1609L31.4452 67.8741C31.7422 67.9888 32.0986 68.1609 32.3361 68.3903C32.7519 68.6771 33.1083 68.9639 33.4647 69.3655C33.7617 69.6523 34.0587 69.9391 34.2962 70.1685C34.5932 70.4553 34.7714 70.7995 35.009 71.1436C35.1872 71.5452 35.3654 71.9467 35.4842 72.4056C35.5436 72.4629 35.603 72.5776 35.7217 72.6924L35.8405 73.8969L37.2661 72.5203L37.9788 73.2086C37.9788 73.1512 37.9788 73.0939 38.0382 73.0939C38.0976 72.9218 38.2164 72.8645 38.3352 72.8645C38.454 72.8645 38.6322 72.8644 38.8698 72.9792L39.5825 72.8071L39.8795 72.1188L39.4043 71.832V71.1436C39.4637 71.0863 39.5231 71.0289 39.5825 71.0289C39.6419 70.9715 39.7607 70.9142 39.8795 70.9142L39.1667 70.3406L39.4043 69.6523L37.4443 69.136C37.3255 68.8492 37.3255 68.5624 37.3849 68.3903C37.4442 68.2756 37.563 68.2756 37.7412 68.1609L36.1375 67.3005L36.4345 68.1609C36.1969 68.0462 35.9593 67.9888 35.7217 67.8741L34.8902 64.834L36.1375 64.7193L36.4345 63.572L35.7217 63.0558L35.306 60.9908L36.4345 60.5893C36.4345 60.4172 36.4939 60.3025 36.5533 60.2451C36.6721 60.1304 36.9097 60.073 37.1473 60.0157V59.3274L37.563 59.0406L37.2661 57.836C37.2067 57.6639 37.1473 57.5492 37.2067 57.4918C37.3848 57.2624 37.6818 57.0329 37.9788 56.8609L37.7412 56.2873L37.9788 53.8208L38.6916 52.4441L39.1667 52.0426C39.1073 51.9852 39.048 51.9279 39.048 51.8705C38.9292 51.7558 38.9292 51.6411 38.9886 51.5837C39.048 51.469 39.1074 51.3543 39.2261 51.2395C39.2855 51.1248 39.3449 51.0675 39.4043 51.0675C39.6419 51.1248 39.7607 51.0675 39.8795 50.9527C39.8795 50.8954 39.9389 50.838 39.9983 50.7807L40.1171 49.0025L41.008 50.4939L42.2554 50.9527L43.2651 49.404L44.0967 50.2644L45.2846 50.7807L45.8192 50.2644L47.1259 49.6908L48.6702 49.404C48.7296 49.4614 48.789 49.4614 48.8484 49.5187C48.9672 49.5761 49.0266 49.5761 49.0266 49.5761C49.3829 49.404 49.5611 49.1746 49.6799 48.8877L49.5611 47.5111L50.0957 46.3639L49.8581 45.8476L50.6897 44.5857L53.1249 44.2989C53.1249 44.471 53.1249 44.5857 53.2437 44.6431C53.4219 44.9872 53.7189 45.0446 54.1347 44.8725L55.5602 45.1593L56.3917 44.5857L56.5105 43.7827L57.1045 43.0943L56.8075 41.1441C56.5699 41.0294 56.4511 40.9146 56.2729 40.7426L55.679 38.7923L54.6692 39.3659L53.8377 39.4806L53.2437 38.2761L54.2535 38.104L56.3917 36.8994L55.2632 32.2532L54.788 31.7943L54.9662 29.4425L55.2632 29.0984V27.7791L56.0947 28.238C56.4511 28.1806 56.6887 28.0085 56.8075 27.6644C56.8669 27.607 56.8669 27.4923 56.9263 27.3776C56.9857 27.3776 56.9857 27.2628 56.9857 27.2628C56.9857 27.0334 57.1045 26.804 57.1639 26.5745C57.1639 26.5172 57.2827 26.4598 57.3421 26.4024C57.4015 26.3451 57.4609 26.3451 57.4609 26.2877C57.4609 25.9435 57.4015 25.542 57.3421 25.1979C57.2827 25.0831 57.2827 24.9111 57.1639 24.7963C57.1045 24.6816 57.0451 24.5669 56.9857 24.5095C56.9857 24.4522 56.9857 24.3948 56.9857 24.3375C56.9857 24.2227 56.9857 24.108 56.9857 23.9359L57.6984 23.4197L57.8172 22.7313L58.6488 22.2151L58.4112 21.6415L58.827 20.7811L59.5397 20.3796L60.2525 18.3146L59.124 17.0527L61.084 16.0775C61.1434 16.0775 61.2028 16.0202 61.2622 15.9628C61.4404 15.7907 61.6186 15.6187 61.7968 15.3892L61.4998 14.873L61.975 14.1846L62.5096 14.2994L63.6381 13.8978L63.1035 11.0298L63.5193 7.98971L62.8065 7.58818L63.9351 6.72777L63.1035 3.97447L62.2126 2.7699C61.975 2.48309 61.6186 2.25365 61.3216 2.13893C61.2028 2.13893 61.1434 2.13894 61.0247 2.31102H60.9653V2.25366L57.2233 1.10645L49.8581 4.54808L49.9769 5.92473L48.8484 6.89986H47.9574L47.2447 6.44097L30.3167 14.5862Z" fill="#C4DFE9" stroke="white" stroke-miterlimit="10"/>
</svg>
