<svg width="51" height="52" viewBox="0 0 51 52" fill="none" xmlns="http://www.w3.org/2000/svg">
<path d="M37.6955 4.26456L36.9827 3.80569L34.6663 1.62598V3.28945L33.8347 2.71584C33.7159 2.83056 33.5971 2.88792 33.5377 3.00264C33.3001 3.11736 33.1814 3.11736 33.122 2.88792C33.122 2.83055 33.122 2.77319 33.122 2.77319C33.2407 2.60111 33.122 2.42902 32.9438 2.19958H32.825C32.6468 2.19958 32.4686 2.25695 32.231 2.31431C32.231 2.25695 32.231 2.19958 32.231 2.19958L32.1122 2.02751C31.8746 2.25695 31.6964 2.54375 31.5776 2.88792V3.97776L31.934 4.9529H31.8746C31.637 5.06762 31.4589 5.18233 31.2807 5.35441C31.1025 5.46913 30.9837 5.58385 30.7461 5.64121C30.2709 5.92802 30.2115 6.32954 30.6867 6.84579H27.4199L25.4004 6.44427L24.8658 6.15747C24.2125 6.50163 23.8561 6.38691 23.8561 5.75594L22.8464 6.04274L22.4306 7.70619H21.1239L20.7081 9.08284L17.0255 8.62397L16.4315 8.22244L15.6 8.50924C15.5406 8.5666 15.4812 8.62397 15.4218 8.62397C15.3624 8.73869 15.2436 8.85341 15.1842 8.91077C15.1248 9.02549 15.0654 9.08284 15.006 9.08284C14.709 9.08284 14.4121 9.02549 14.1745 8.91077L10.7295 12.5245L10.4325 13.3275L10.3137 14.3027H8.5912L7.75965 14.8189V16.0808L7.0469 17.056L4.61164 18.1458L2.17638 17.3428L1.64181 17.859C1.46362 17.8017 1.34483 17.8017 1.28544 17.859C0.929056 18.0885 0.929055 18.3179 1.34483 18.5473L3.06733 18.4326L2.17638 19.1209L2.35457 19.8093L1.16664 21.7022L1.34483 22.9641L3.89888 23.5377L3.48311 24.6275L3.30492 25.8321L2.17638 25.4306L2.05759 27.4956H2.47337L3.48311 28.9296L4.31466 29.0443L4.61164 29.7326L5.02741 29.9621L5.3244 30.6504L6.03716 31.3387C5.97776 31.5682 6.03715 31.7976 6.09655 31.9697C6.15595 32.0844 6.27474 32.1418 6.45293 32.1991C6.51233 32.1991 6.57172 32.1991 6.57172 32.1991C6.74991 32.4286 6.86871 32.3712 6.86871 32.1991L7.52207 33.0022L7.40327 33.6905L7.99724 34.5509V35.9276L9.66034 37.3042L10.2543 37.9926L11.3828 38.222L12.3926 38.7956L14.1151 39.3692L13.8181 40.287C13.8775 40.2296 13.9963 40.1723 14.1151 40.2296C14.2339 40.1149 14.3527 40.1723 14.4715 40.2296C14.5902 40.4017 14.709 40.5164 14.7684 40.7459C15.006 41.5489 15.4218 42.2946 15.8376 43.0403C16.0752 43.3271 16.2534 43.6139 16.3721 43.9007L17.2631 43.3271L17.3819 44.3022L20.1141 44.4169L21.2427 45.5641C21.3021 45.5641 21.4208 45.6215 21.4208 45.5641C21.5396 45.5068 21.6584 45.4494 21.7178 45.3921L21.7772 45.3347C21.6584 45.5641 21.7178 45.7936 21.9554 45.9657L23.2027 46.654L23.4997 47.8586V48.8337L24.3907 49.4073H26.232L26.3508 50.8987L27.2417 50.6119L28.3108 49.9235L28.786 49.4073L29.7958 49.9235L31.2213 49.4073L31.0431 48.5469L31.5182 48.0307L32.0528 47.8586L31.0431 44.589L31.5776 42.9255L32.9438 43.9007L33.8941 42.8108L35.3196 43.7286C35.4978 43.7286 35.6166 43.7286 35.7948 43.7286C35.7948 43.7286 35.8542 43.6712 35.9136 43.6139H35.973C36.0324 43.2124 36.1512 42.8108 36.2106 42.3519L38.3488 42.2372L38.4676 39.3692L38.8834 38.5088L39.7744 38.1073L40.4871 26.5205L42.3284 25.3159L42.9224 22.5626L44.1697 22.3905L47.6147 22.6773L49.8718 21.5874L47.3177 18.8341L45.8922 16.4824L46.011 14.8189L45.4764 13.6143L45.5952 12.0656L44.7637 11.1478L42.4472 10.2874H41.4969L41.9126 8.91077C41.9126 8.85341 41.972 8.79606 41.972 8.73869C42.0314 8.68133 42.0908 8.62396 42.0908 8.5666C42.2096 8.33716 42.3284 8.16508 42.4472 7.93563L42.2096 6.73108L41.6157 6.32955V5.64121L40.5465 4.83817C40.4871 4.89553 40.4277 5.01025 40.3089 5.06761C39.7744 5.06761 39.4774 5.06761 39.2992 5.12497C39.2398 5.12497 39.121 5.12497 39.0616 5.12497C38.5864 5.12497 38.2301 4.9529 37.9331 4.72346C37.7549 4.6661 37.6955 4.49401 37.6955 4.26456Z" fill="#C4DFE9" stroke="white" stroke-miterlimit="10"/>
</svg>
