<svg width="69" height="82" viewBox="0 0 69 82" fill="none" xmlns="http://www.w3.org/2000/svg">
<path d="M64.8915 9.73181L63.9412 9.04347L63.3472 9.44501L59.9022 11.1085L59.724 12.5998L57.5264 12.0836L54.9129 10.4201L53.1904 13.8618L51.5273 13.1734L50.3988 13.575C49.686 12.944 48.9138 12.3704 48.0823 11.8541C47.6071 11.51 47.1914 11.1658 46.7756 10.879C46.3598 10.5349 46.0034 10.1907 45.7064 9.84652C45.4095 9.55972 45.1719 9.27291 44.9937 8.98611C44.5185 8.1257 43.9839 7.2653 43.5088 6.40489C43.4494 6.29017 43.39 6.17546 43.39 6.00337C43.2712 5.60185 43.1524 5.20032 43.0336 4.7988C42.796 4.28256 42.6178 3.82367 42.3208 3.42215C42.0833 3.02063 41.7863 2.67646 41.5487 2.27494L40.8359 3.13535L37.8067 2.44702L36.3812 6.57698L34.2429 6.00337L31.9859 7.95363L29.8476 8.35514L29.1348 9.33028L28.2439 8.06834L28.9566 5.71657L30.5603 4.0531L26.9965 1.2998L25.3928 1.47188L24.1455 4.22519L23.8485 3.65159L22.0072 3.82366L20.7005 5.31504L19.275 5.71657L18.8592 6.69169L17.5525 7.78154L12.4444 5.71657L13.276 7.38002L12.8602 8.06834V9.04347L12.1474 10.1333C12.088 10.3054 12.088 10.4201 12.0286 10.5349C11.9692 11.2805 12.0286 11.9689 12.2662 12.6572C12.5038 13.2308 12.6226 13.8044 12.6226 14.4354C12.6226 14.4927 12.6226 14.6074 12.6226 14.6648C12.5632 14.8942 12.5632 15.1237 12.5632 15.3531C12.5038 15.5826 12.5038 15.812 12.4444 16.0415C12.3256 16.2709 12.2662 16.5003 12.088 16.7298C11.791 17.1313 11.5535 17.5902 11.3159 18.0491C11.0783 18.3932 10.9595 18.7948 10.9001 19.1963V21.8349L12.0286 22.9247L13.1572 25.2765C13.1572 25.5059 13.2166 25.7354 13.2166 25.9648C13.2166 26.0222 13.2166 26.0795 13.276 26.1369C13.3354 26.3663 13.3948 26.6532 13.4541 26.94C13.4541 27.0547 13.5135 27.1694 13.6323 27.3415C13.8105 27.6856 13.9887 28.0872 14.1669 28.4887C14.2857 28.9476 14.2857 29.3491 14.2263 29.808C14.1075 30.1522 13.9887 30.4963 13.7511 30.7831C13.5729 31.0699 13.3947 31.3567 13.276 31.5862C13.0384 31.9303 12.8008 32.2171 12.5038 32.5039C12.385 32.676 12.2068 32.8481 12.0286 32.9628L10.3061 33.6511L8.88062 33.5364L7.87088 34.7983L7.4551 35.6588C7.63329 35.9456 7.75208 36.2324 7.93027 36.5192C7.98967 36.6339 8.04907 36.806 8.16786 36.8633C8.28666 37.1501 8.46484 37.3796 8.64303 37.6664C8.82122 38.0105 8.99941 38.4121 8.99941 38.8136C9.1182 39.674 9.23699 40.5344 9.41518 41.3374C9.47458 41.7963 9.65277 42.3126 9.89036 42.7141C10.0092 42.8862 10.0685 43.0583 10.0685 43.2303C10.2467 43.804 10.3061 44.3776 10.3061 44.9512C10.3061 45.2953 10.2467 45.6395 10.1279 45.9263C10.1279 46.0984 10.0685 46.2131 10.0091 46.3278C9.77156 46.7293 9.53398 47.0735 9.29639 47.4177C9.1182 47.7618 8.94001 48.106 8.82122 48.4502C8.64303 48.737 8.58363 49.0811 8.64303 49.3679C8.64303 49.9989 8.70243 50.5725 8.82122 51.1461C8.94001 51.5476 8.94001 51.9491 8.99941 52.408C8.99941 52.6375 8.99941 52.9243 8.99941 53.2111L10.1873 54.8745L9.59337 58.3162H8.58364L8.16786 57.9146C7.93028 57.4558 7.69269 57.5131 7.5145 57.972C7.4551 58.1441 7.5145 58.3735 7.5739 58.603C7.75209 58.8898 7.81148 59.2339 7.93027 59.5781C7.93027 59.6355 7.93028 59.7502 7.87088 59.8075H6.86113L6.44536 60.4959L5.91079 60.7827L5.43562 61.7578L7.75208 60.7827L7.5739 62.3314C7.33631 62.4461 7.03932 62.5608 6.74234 62.7329C6.62355 62.905 6.44536 63.0771 6.32657 63.2492L6.14838 65.773L5.01985 68.0674H4.30709L2.88157 69.0426L1.04028 72.1974L1.45606 73.1725H2.16881L3.05976 73.5741L3.59433 73.3446L4.60407 73.7461L6.32657 72.8857L7.33631 73.8609L5.91079 76.4995L6.02958 76.901L5.31683 77.8761L6.02958 78.2776L6.62355 79.138L5.91079 78.8512L5.43562 79.2527L4.30709 79.9411L5.01985 80.7441C5.19804 80.9736 5.31682 81.0883 5.37622 80.9736C5.97018 81.1456 6.56415 81.1456 7.15811 81.0309C7.3363 80.9736 7.3363 80.9162 7.15811 80.9162C7.03932 80.6294 7.03932 80.4573 7.15811 80.3426C7.21751 80.4 7.27691 80.5147 7.39571 80.572C7.4551 80.6294 7.57389 80.6868 7.75208 80.7441L8.99941 79.5396L12.8602 79.769C12.979 79.9984 13.0978 80.1705 13.3354 80.2852C13.5135 80.2852 13.5729 80.3426 13.5729 80.2852C13.6323 79.8264 13.5729 79.3101 13.4541 78.8512L13.9887 77.9908L16.8397 77.8761L16.6022 75.4096L18.2653 73.0578H19.869L20.4035 75.4096C20.7005 75.467 20.9975 75.5817 21.2351 75.6964C21.2945 75.6964 21.2945 75.7538 21.2945 75.8111C21.8885 75.8111 22.2448 75.8111 22.2448 75.6964C22.423 75.1802 23.1952 75.1228 24.6207 75.4096C25.274 75.5243 25.9868 75.5817 26.6996 75.6964C26.8183 75.6964 26.8777 75.6964 26.9965 75.6964L27.5311 76.3274L26.8184 74.5492L30.6791 72.0827L31.3919 73.1725L33.1144 72.4842L35.5496 70.1324V69.3294L36.2624 68.7558L38.2225 67.838L37.5097 66.5761C37.6285 66.3466 37.6879 66.1172 37.7473 65.8877C37.8067 65.8304 37.8067 65.773 37.8067 65.773L39.945 64.2243L43.093 64.5111L44.8155 63.2492L45.944 63.8228L46.538 63.2492L43.687 58.3162L46.0628 55.5629L44.5185 52.9243L47.6665 52.0065L48.6763 52.6948L52.2401 50.171L53.9626 51.3182L54.7941 50.7446L55.2099 49.3679L55.9226 48.2781L55.3881 46.9014L55.9226 45.5248C55.9226 45.3527 55.9226 45.238 55.8632 45.1232C55.8632 44.8364 55.8038 44.5496 55.6851 44.3202C55.5663 44.0908 55.5069 43.9187 55.3287 43.7466C55.1505 43.5745 54.9129 43.4024 54.6753 43.2303C54.2595 42.9435 53.9032 42.5994 53.4874 42.2552L52.0619 42.542L50.3988 40.8212L55.6257 37.7811L57.9421 39.7313L59.9022 37.2649C60.021 37.1501 60.1398 37.0928 60.1398 36.9781C60.1992 36.6912 60.1398 36.4044 60.021 36.175L60.1992 34.3395L59.724 33.9379L61.0901 29.808L59.1894 28.1445L63.466 22.9247C63.466 22.81 63.466 22.6953 63.4066 22.6379C63.2284 22.4658 63.1096 22.3511 62.9314 22.2364C62.8126 22.0643 62.6938 21.9496 62.5157 21.8349C62.3969 21.7775 62.3375 21.7775 62.2187 21.8349L62.3375 23.4983L60.6744 22.2364L62.6938 21.2613L63.5254 20.5729H65.9606L64.9509 19.3684L64.7133 18.3932L66.1388 17.3034L66.6734 16.3283L67.9801 15.6399L67.3862 14.1486L65.6637 14.2633L65.5449 13.1734L66.8516 12.313V11.3953L64.8915 9.73181Z" fill="#C4DFE9" stroke="white" stroke-miterlimit="10"/>
</svg>
