<svg width="45" height="60" viewBox="0 0 45 60" fill="none" xmlns="http://www.w3.org/2000/svg">
<path d="M8.45989 9.24527C8.2817 9.24527 8.22231 9.18791 8.10352 9.13055C7.92533 9.13055 7.68774 9.18791 7.45015 9.30263C7.39075 9.35999 7.33136 9.47471 7.27196 9.53207L6.7374 8.95847L5.31188 9.13055L5.0149 11.9986L4.18334 12.6869L4.00515 14.7519L2.28266 15.1534L1.45111 16.3006L1.86688 16.9889C2.22326 17.0463 2.52025 17.2184 2.75783 17.3905C2.75783 17.4478 2.75783 17.5052 2.69843 17.6773C2.63904 17.6773 2.63904 17.7346 2.57964 17.792L2.16387 19.857H3.17361L4.71792 21.9219L6.44041 20.9468L7.56894 21.8072V22.3235L8.69748 23.7001L9.88541 23.9869L9.70722 26.4534L10.0042 27.027L9.29145 27.5433L9.70722 31.4438L10.3012 32.1321L8.87567 33.222L9.17266 35.1149L10.3012 36.7783H11.3109L10.0042 38.0402L8.99446 38.4418L8.69748 40.392L7.27196 41.7687L8.16291 42.9733L8.99446 45.7266L7.86593 46.587L8.57869 46.9885L8.16291 50.0286L8.69748 52.8966L9.70722 52.7819L13.271 50.5448V51.6347L13.865 52.2083L16.0033 53.1834L16.419 52.323L17.2506 52.4951V53.5849L17.8445 51.4052L18.4385 51.9215L18.2603 52.8966L18.6761 53.8718C18.6167 53.9865 18.5573 54.1012 18.6167 54.2159C18.6761 54.5027 18.7949 54.7322 19.0325 54.9616C19.1513 55.019 19.2701 55.1337 19.4482 55.191C19.6858 55.3631 19.9828 55.4778 20.2798 55.5926C20.3986 55.6499 20.458 55.6499 20.5768 55.6499L22.1211 55.0763H22.2399V53.9865L24.6751 52.7819L25.3879 54.388L26.6946 55.2484L27.5262 55.6499V55.7646H27.4074L28.1201 58.0017L28.2389 58.9768C28.2389 59.0342 28.2983 59.0916 28.2983 59.0916C28.4171 59.1489 28.5359 59.1489 28.6547 59.0916C28.8923 59.0342 29.1299 58.9768 29.3675 58.9768C29.605 58.9195 29.8426 58.8621 30.0802 58.7474C30.496 58.5753 30.9118 58.2885 31.2682 57.8296C31.4463 57.6002 31.6245 57.3707 31.8027 57.1413L32.8125 56.7398L32.0997 54.9616L33.8222 53.9865L35.7823 53.8718V52.7819C36.0793 52.4951 36.3168 52.3804 36.6732 52.3804C36.7326 52.323 36.8514 52.2657 36.9108 52.2083C37.1484 52.0362 37.3266 51.8641 37.5642 51.692C37.8612 51.4626 38.2175 51.2332 38.5145 50.9464C38.8709 50.6596 39.1085 50.3154 39.2273 49.8565C39.2273 49.7992 39.2273 49.7418 39.2867 49.7418C39.5837 49.6271 39.643 49.455 39.3461 49.2255C39.2273 49.1108 39.1679 49.0535 39.1085 49.0535L40.7716 48.1931H40.9498H41.9595C42.0189 47.7915 42.1377 47.39 42.3753 47.0459C42.6129 46.587 42.8505 46.1281 43.1474 45.7266C43.3256 45.4971 43.385 45.2677 43.5038 45.0382C43.5632 44.8088 43.5632 44.5793 43.6226 44.3499C43.6226 44.1205 43.6226 43.891 43.682 43.6616C43.682 43.6042 43.682 43.4895 43.682 43.4321C43.682 42.8012 43.5632 42.2276 43.3256 41.6539C43.0881 40.9656 43.0287 40.2773 43.088 39.5316C43.1474 39.4169 43.1474 39.3022 43.2068 39.1301L43.9196 38.0402V37.0651C43.682 36.7783 43.4444 36.4342 43.2068 36.09C43.088 35.9179 42.9693 35.7458 42.7911 35.5737C42.6129 35.3443 42.4347 35.1722 42.1971 35.0001C41.9595 34.8854 41.7219 34.7133 41.5437 34.5413C41.3656 34.4265 41.2468 34.3118 41.128 34.1397C40.9498 33.9103 40.831 33.6235 40.7716 33.3367C40.4746 32.4189 40.2964 31.5011 40.1182 30.5834C40.0588 30.4687 40.0588 30.3539 39.9994 30.2392C39.94 29.8377 39.8212 29.4362 39.7618 29.0346C39.7025 28.9199 39.7618 28.8052 39.7618 28.6905C39.8212 28.4037 39.8806 28.1169 39.94 27.8301C39.9994 27.658 39.9994 27.4859 40.0588 27.3138C40.0588 27.027 40.0588 26.7402 40.1182 26.4534C40.1182 26.2813 40.1776 26.1093 40.237 25.9372C40.5934 25.4209 40.8904 24.9047 41.1874 24.3884C41.3656 24.1016 41.4843 23.8148 41.4843 23.5854C41.5437 23.2412 41.6031 22.9544 41.6625 22.6103C41.7813 22.3235 41.8407 22.0367 41.9001 21.8072C41.9595 21.5778 42.0189 21.4057 42.0783 21.2336L40.0588 20.4306L40.237 19.1686L39.2273 18.8818L38.5145 16.8169L36.9702 15.6123L34.6537 12.4001L36.2575 11.0234L35.9605 8.55695L34.9507 7.58181L34.3568 6.66405C34.1786 6.66405 34.0004 6.7214 33.8222 6.7214C33.7034 6.7214 33.644 6.66404 33.5846 6.60668C33.347 6.37724 33.1688 6.09044 32.9906 5.80364C32.6343 5.17267 32.2779 4.54171 31.9809 3.91074L31.8027 2.93561L32.2185 2.07521L31.6839 0.985352L28.6547 1.67368L27.1104 1.15743L25.5661 1.55896L24.3782 2.36201L22.4181 2.53409L22.8338 3.33714L23.1308 4.82851L24.3782 5.80364L24.9721 7.06557L23.2496 6.09044L22.1211 6.66405L21.8241 7.58181L20.9926 6.77877L20.1016 6.66405L18.4385 8.95847L17.013 8.55695L16.122 9.93359L17.1318 11.0234L15.1123 11.1955L14.2807 12.2854L12.4395 10.5072L11.8455 10.3351L11.1327 9.53207V8.72902L9.17266 7.18029C9.11326 7.35237 9.05386 7.52445 8.99446 7.75389L8.45989 9.24527Z" fill="#B4FF00" stroke="white" stroke-miterlimit="10"/>
</svg>
