<svg width="67" height="75" viewBox="0 0 67 75" fill="none" xmlns="http://www.w3.org/2000/svg">
<path d="M49.2702 35.3152C49.2108 35.3152 49.092 35.3726 49.092 35.3152C48.9732 35.2005 48.7951 35.1431 48.7357 35.0284L47.7259 35.7167L47.0132 36.4051L44.8749 34.2254L45.4688 31.7015L44.9937 31.3L44.1621 28.5467C44.2215 28.3172 44.2809 28.2025 44.1621 28.0304C44.1027 27.9157 43.9839 27.801 43.7464 27.7436C43.6276 27.7436 43.5088 27.7436 43.4494 27.7436L42.1426 25.5639L42.5584 24.302L42.7366 23.6137L41.1329 22.1223L39.4698 21.6634L38.6977 22.9253L37.4503 23.6137L38.2819 24.4741L36.8564 25.2771L35.7278 23.499L34.8369 21.1472L35.4308 20.4588L34.0053 19.7705L34.5993 18.2218L35.312 17.7055L34.4805 16.7304L31.3325 16.6157L29.907 15.6406L25.6304 16.1568L25.2146 15.4685L24.2049 14.7801L22.0666 14.5507H20.6411L19.3344 15.0669C19.275 15.1243 19.2156 15.1243 19.1562 15.1243C19.1562 15.1243 19.0968 15.1243 18.978 15.0096L18.2059 13.9771L17.1961 13.1741L16.4834 11.7974L14.6421 10.1339L13.8105 9.73242L12.6226 8.18368L15.0578 5.83191L14.7609 5.31566L15.4736 5.14358L15.6518 4.11109C15.3548 3.88165 15.3548 3.70957 15.6518 3.53749L15.0578 2.84916L14.2263 2.96388L13.5135 2.67708L13.0978 1.98875L12.088 0.78418L10.2467 1.1857L8.34604 1.01362L6.92053 3.25068L7.21751 4.11109L7.09872 4.62733L6.08898 5.43039L4.24769 5.83191L5.25743 7.55272L4.96044 8.87202L4.24769 9.56034L4.54467 10.7076L4.24769 11.2238L4.36648 12.0268L4.78225 12.8873L5.97018 13.6903L7.09872 14.2639L7.81148 15.6406C7.98967 15.6406 8.16785 15.6406 8.34604 15.7553C8.64302 15.7553 8.64303 15.9847 8.22725 16.3289L10.6625 17.4187L11.1971 19.5984C11.3753 19.7705 11.4941 19.9426 11.6722 20.172V21.8355L12.2068 22.5238L11.9098 23.3269L10.6625 22.8106H9.94975L8.82122 23.0401L8.22725 24.8756L8.82122 25.9654L8.52423 27.17H7.21751L5.07924 26.2522L3.65372 26.7685L4.54467 27.17L5.07924 28.0304L3.23795 29.1203L3.11916 29.6939L2.22821 29.9233L2.10941 31.0705L0.683899 31.9883L1.21846 33.0782L0.80269 33.9386L0.980881 34.9137C1.27786 35.5447 1.63424 36.1756 1.99062 36.8066C2.16881 37.0934 2.347 37.3802 2.58458 37.6096C2.64398 37.667 2.70338 37.7244 2.82218 37.7244C3.00037 37.7244 3.17855 37.667 3.35674 37.667L3.95071 38.5848L4.96044 39.5599L5.25743 42.0264L3.65372 43.403L5.97018 46.6152L7.51449 47.8198L8.22725 49.8848L9.23699 50.1716L9.05881 51.4335L11.0783 52.2366C11.0189 52.4086 10.9595 52.5807 10.9001 52.8102C10.8407 53.0396 10.7813 53.3264 10.6625 53.6132C10.6031 53.9574 10.5437 54.2442 10.4843 54.5884C10.4843 54.8178 10.3655 55.1046 10.1873 55.3914C9.89035 55.9076 9.59337 56.4239 9.23699 56.9401C9.17759 57.1122 9.1182 57.2843 9.1182 57.4564C9.0588 57.7432 9.05881 58.03 9.05881 58.3168C8.99941 58.4889 8.9994 58.6609 8.94001 58.833C8.88061 59.1198 8.82122 59.4066 8.76182 59.6934C8.76182 59.8082 8.70243 59.9229 8.76182 60.0376C8.82122 60.4391 8.94001 60.8406 8.99941 61.2422C9.0588 61.3569 9.0588 61.4716 9.1182 61.5863C9.29639 62.5041 9.47458 63.4219 9.77156 64.3396C9.83096 64.6264 9.94975 64.9133 10.1279 65.1427C10.2467 65.3148 10.3655 65.4295 10.5437 65.5442C10.7219 65.7163 10.9595 65.8884 11.1971 66.0031C11.4347 66.1752 11.6129 66.3473 11.791 66.5767C11.9692 66.7488 12.088 66.9209 12.2068 67.0929C12.4444 67.4371 12.682 67.7813 12.9196 68.0681L13.3354 67.3798L12.5038 65.7163L17.6119 67.7813L18.9186 66.6914L19.3344 65.7163L20.7599 65.3148L22.0666 63.8234L23.9079 63.6513L24.2049 64.2249L25.4522 61.4716L27.0559 61.2995L30.6197 64.0528L29.016 65.7163L28.3033 68.0681L29.1942 69.33L29.907 68.3549L32.0452 67.9534L34.3023 66.0031L36.4406 66.5767L37.8661 62.4467L40.8953 63.1351L41.6081 62.2747C41.8457 62.6762 42.1427 63.0204 42.3802 63.4219C42.6772 63.8234 42.8554 64.2823 43.093 64.7985C43.2118 65.2001 43.3306 65.6016 43.4494 66.0031C43.4494 66.1752 43.5088 66.2899 43.5682 66.4046C44.0433 67.265 44.5779 68.1254 45.0531 68.9858C45.2313 69.2726 45.4688 69.5594 45.7658 69.8462C46.0628 70.1904 46.4192 70.5346 46.835 70.8787C47.2508 71.1656 47.6665 71.5097 48.1417 71.8539C48.9732 72.3701 49.7454 72.9437 50.4581 73.5747L51.5867 73.1732L53.2498 73.8615L54.9723 70.4199L57.5857 72.0833L59.7834 72.5996L59.9616 71.1082L63.4066 69.4447L64.0006 69.0432L64.9509 69.7315L65.6637 67.6666L64.9509 67.3798L63.1096 63.2498L62.8126 61.9879L65.2479 58.4315L64.2381 55.7929L60.0804 53.7279L61.3871 50.2863L60.2586 47.8198C60.2586 47.7624 60.2586 47.6477 60.1992 47.5904C60.0804 47.4183 59.9022 47.2462 59.7834 47.0741C59.6646 46.902 59.4864 46.6726 59.2488 46.4432C58.8925 46.0416 58.4173 45.6975 57.8233 45.468C57.7045 45.468 57.5857 45.4107 57.4075 45.3533C57.3481 45.3533 57.3481 45.3533 57.2887 45.3533C56.9324 44.9518 56.5166 44.665 56.1602 44.4929C56.1008 44.4355 56.0414 44.4355 55.982 44.3782C54.8535 43.6325 53.725 42.8868 52.5964 42.1985C52.5964 42.0838 52.6558 42.0264 52.5964 41.969C52.4182 41.4528 52.24 40.9939 52.0025 40.535C51.8837 40.4203 51.7649 40.3056 51.6461 40.1909C50.9927 39.6746 50.28 39.1584 49.6266 38.6995C49.4484 38.5274 49.2702 38.3553 49.092 38.1832L50.9927 35.4299L50.4581 35.0284L49.983 35.602L49.5672 35.1431C49.4484 35.2005 49.389 35.2579 49.2702 35.3152ZM21.3539 30.7837L22.0666 31.7015C22.0072 31.9883 21.9478 32.2751 21.8885 32.5619L22.8982 33.0782L22.3636 33.537L23.9079 34.9137L24.5019 34.7416L25.0365 35.1431L26.462 35.4299L26.8778 36.8066L29.61 36.6919L29.313 37.8964L30.0258 38.8716L30.204 39.8467L28.1845 40.6497L27.7687 41.6249L27.0559 41.5102L26.759 42.1985C26.5808 42.3132 26.3432 42.4279 26.165 42.5426C25.9274 42.6574 25.8086 42.6 25.7492 42.3132L24.7395 43.0015L25.2146 43.403L23.0764 46.4432L21.6509 46.73C21.4133 46.73 21.1757 46.73 20.9381 46.73L19.3344 45.2386L19.6314 44.665L19.0374 44.3782L18.2059 43.5751L17.7901 44.2635L16.1864 44.7797L15.6518 44.5503L13.9293 44.7797L12.8008 45.3533L13.0978 43.8619L12.9196 42.6L13.8105 41.797V40.8218L14.0481 39.8467L12.2068 38.0685L12.385 36.9787L11.9098 35.7167C11.791 35.7167 11.7316 35.7741 11.7316 35.7741C11.7316 35.5447 11.8504 35.5447 11.9098 35.7167V34.6269L11.9692 34.4548C11.6722 34.5695 11.5535 34.5122 11.6722 34.3401L12.2068 32.2751H13.5135C13.8699 32.5045 14.1075 32.3898 14.2263 31.9883C14.2263 31.9309 14.2263 31.8736 14.2263 31.8736C14.2263 31.7015 14.2263 31.6441 14.2857 31.5868C14.3451 31.5868 14.5233 31.6441 14.6421 31.7015C14.7609 31.6441 14.9391 31.7015 15.0578 31.8736L16.4834 31.5868L16.3646 30.3822H18.5028L18.0871 31.5868L19.6314 30.0954L21.3539 30.7837Z" fill="#B4FF00" stroke="white" stroke-miterlimit="10"/>
</svg>
