<svg width="65" height="63" viewBox="0 0 65 63" fill="none" xmlns="http://www.w3.org/2000/svg">
<path d="M15.1895 1.96387L12.4573 3.45524L10.9129 2.6522L10.6754 4.54509L8.3589 7.47048L4.67631 5.6923L3.01322 6.61007L3.13202 7.98672L2.30045 7.5852L1.4689 7.69992L0.874939 10.2238L3.01322 12.4035L3.72598 11.7152L4.73571 11.0268C4.79511 11.1416 4.9733 11.1989 5.09209 11.3136C5.09209 11.371 5.21088 11.3136 5.27028 11.3136C5.38907 11.2563 5.50786 11.1989 5.56726 11.1415L5.98304 11.6004L6.45821 11.0268L6.99279 11.4284L5.09209 14.1817C5.27028 14.3537 5.44847 14.5258 5.62666 14.6979C6.28002 15.1568 6.99277 15.673 7.64614 16.1893C7.76493 16.304 7.88373 16.4187 8.00252 16.5334C8.2401 16.9923 8.41829 17.4512 8.59648 17.9675C8.65588 18.0248 8.59648 18.0822 8.59648 18.1969C9.72502 18.8852 10.8536 19.6309 11.9821 20.3766C12.0415 20.434 12.1009 20.434 12.1603 20.4913C12.5167 20.6634 12.9324 20.9502 13.2888 21.3517C13.3482 21.3517 13.3482 21.3517 13.4076 21.3517C13.5858 21.4091 13.7046 21.4664 13.8234 21.4664C14.4174 21.6959 14.8925 22.0401 15.2489 22.4416C15.4865 22.671 15.6647 22.9005 15.7835 23.0725C15.9023 23.2446 16.0805 23.4167 16.1992 23.5888C16.2586 23.6461 16.2586 23.7609 16.2586 23.8182L17.3872 26.2847L16.0804 29.7264L20.2382 31.7913L21.2479 34.4299L18.8127 37.9863L19.1097 39.2482L20.951 43.3782L21.6637 43.665L20.951 45.73L22.8516 47.3934V48.3112L21.5449 49.1716L21.6637 50.2614L23.3862 50.1467L23.9802 51.6381L22.6735 52.3264L22.1389 53.3015L20.7134 54.3914L20.951 55.3665L21.9607 56.5711H19.5254L18.6939 57.2594L16.6744 58.2345L18.3969 59.4965L18.2781 57.833C18.3969 57.7757 18.4563 57.7757 18.5751 57.833C18.7533 57.9477 18.8721 58.0625 18.9909 58.2345C19.1691 58.3493 19.2879 58.464 19.4661 58.6361C19.5254 58.6934 19.5254 58.8082 19.5254 58.9229L19.8224 60.0127L20.8322 61.3894C21.0104 61.5041 21.1885 61.5614 21.4261 61.5614C21.4261 61.5614 21.4855 61.5041 21.5449 61.3894V60.2995L25.1087 61.963L26.1184 60.2995C26.1778 60.3569 26.2966 60.4142 26.4154 60.4716C26.4154 60.4716 26.4748 60.529 26.5342 60.529C26.653 60.529 26.7718 60.4716 26.7718 60.3569C26.8312 60.2995 26.8906 60.1848 26.8906 60.0701C26.95 59.9554 27.0094 59.8406 27.0688 59.7259C27.0688 59.6686 27.1282 59.5538 27.1282 59.4965L28.9695 59.7833L30.098 61.3894L32.5333 61.6762L32.949 60.2995L36.3941 59.0949L35.6813 55.1944L37.8196 52.6132C37.8196 52.6132 37.879 52.6132 37.9383 52.6132C38.1759 52.6706 38.4135 52.7853 38.5917 52.9574C38.6511 52.9574 38.7105 53.0147 38.8293 53.0721C39.0669 53.1868 39.3045 53.1295 39.6015 53.0721C40.3736 52.9 41.1458 52.6132 41.7991 52.1543C41.9773 52.0396 42.0961 51.8675 42.2149 51.6381L43.7592 51.9249L44.6502 51.6381L46.3727 52.6132L48.3327 51.9249L50.3522 49.9746V49.1716L49.2237 48.7701L50.174 48.8848L49.9364 47.6228V46.1315L49.4613 45.3284C49.3425 45.2137 49.2831 45.099 49.2831 45.0416C49.2831 44.6401 49.4019 44.3533 49.6395 44.0665C49.6395 44.0091 49.7583 44.0091 49.9364 44.0665L50.174 43.2634L51.5995 42.5751L51.7777 43.7797L54.0348 43.665C53.9754 43.4355 53.916 43.2635 53.916 43.1487C53.9754 43.034 54.0348 42.9766 54.213 42.9766L55.4603 42.1162L55.6385 41.4279L56.3513 41.8868L55.6385 40.6249C55.6979 40.5101 55.7573 40.3381 55.7573 40.2233C55.7573 40.1086 55.7573 40.0513 55.6979 39.9365C55.6979 39.8218 55.6979 39.6497 55.6979 39.535C55.6979 39.3056 55.6979 39.1335 55.6979 38.9614C55.7573 38.732 55.8167 38.5599 55.9949 38.4452C56.1731 38.2731 56.3513 38.1584 56.5889 38.1584L56.3513 37.298L55.7573 36.3802L57.7768 34.5446H58.6083L60.0339 33.8563L61.5782 30.8736L62.0533 31.2751L62.2909 30.7015L63.3007 29.6116C63.3601 29.6116 63.3601 29.6116 63.3601 29.6116C63.5976 27.2599 63.5976 24.9654 63.3601 22.6137C63.1225 20.0898 62.7661 17.5659 62.1721 14.9847C62.1721 14.9274 62.1721 14.8126 62.1721 14.7553C62.2315 14.6405 62.2315 14.5832 62.2909 14.4685L62.7661 13.8949L62.0533 13.4933L61.7563 12.002L62.1721 8.84713L61.1624 7.69992L60.0339 7.18368L56.1731 7.69992L55.1633 7.06896L54.4506 2.939C54.3912 2.30804 54.213 1.90651 53.9754 1.61971C53.6784 1.27555 53.3221 1.16083 53.0251 1.21819C52.6687 1.33291 52.3717 1.61971 52.1935 2.02123C51.9559 2.48011 51.8965 2.88164 51.8965 3.34052L51.362 4.02885L49.7583 4.31565L49.3425 6.49535C49.1049 6.49535 48.9861 6.61007 48.8673 6.72479C48.6891 6.89687 48.5703 7.06896 48.5703 7.35576C48.5703 7.35576 48.5703 7.41312 48.6297 7.47048C48.7485 7.47048 48.8079 7.52784 48.8079 7.5852C48.7485 7.98672 48.5703 8.38825 48.2733 8.78977C48.214 8.78977 48.1545 8.84713 48.0358 8.84713H46.9072L47.0854 9.93698L40.4924 13.3786L40.1954 14.87L39.3639 15.8451L37.9383 15.9598L37.2256 17.5086L36.5128 18.1969L34.0776 18.4837V17.6233L32.1175 17.2218L29.9792 14.5832L30.5138 12.9771L29.801 10.74L28.6725 10.4532L27.247 9.53546L26.95 8.67505C26.7718 8.50297 26.5936 8.33089 26.4154 8.1588L26.2372 6.49535L21.4261 7.69992L22.8516 9.24866L21.8419 10.0517L18.6939 8.96186L17.5654 8.27352L17.1496 7.5852L17.5654 5.92175L16.6744 2.6522L15.1895 1.96387Z" fill="#C4DFE9" stroke="white" stroke-miterlimit="10"/>
</svg>
