<svg width="71" height="55" viewBox="0 0 71 55" fill="none" xmlns="http://www.w3.org/2000/svg">
<path d="M67.6896 20.5729L66.3829 20.1714L62.5815 20.4582C62.2845 20.1714 61.9875 19.9993 61.6905 19.8846C61.2748 19.7125 60.7996 19.5978 60.265 19.5978C60.0274 19.5405 59.7899 19.4257 59.5523 19.3684C59.4929 19.3684 59.4929 19.3684 59.4335 19.311C59.1959 19.1389 58.9583 18.8521 58.7207 18.508C58.4237 18.1064 58.0674 17.7049 57.711 17.4181C57.0576 16.9592 56.4043 16.443 55.8103 15.9267C55.4539 15.6399 55.0975 15.2958 54.8599 14.9516L53.1374 15.3531L52.0089 12.7146L51.4149 12.0262L49.8706 11.7968L48.0294 10.5349L46.0099 7.09322L45.8911 6.4049L42.7431 3.25007L39.0605 2.67646L38.5853 1.2998H36.9222C36.744 1.41453 36.5064 1.52925 36.3282 1.47189C36.0907 1.52925 35.8531 1.64397 35.6155 1.70134C35.3185 1.87342 35.0809 2.04549 34.8433 2.21758C34.7839 2.21758 34.7245 2.27494 34.6057 2.27494C34.5463 2.27494 34.487 2.3323 34.4276 2.38966C34.0712 2.50438 33.7742 2.73382 33.5366 3.02062C33.3584 3.25006 33.2396 3.36479 33.002 3.53687C32.6457 3.82367 32.3487 4.11047 32.1111 4.45463C32.1111 4.45463 32.2299 4.512 32.3487 4.56936C32.4675 4.68408 32.5269 4.68408 32.6457 4.74144L32.0517 6.4049C32.2299 6.6917 32.4081 6.9785 32.6457 7.2653L31.3389 10.7069H29.6164L29.2007 11.1085H28.0721L29.6164 12.8866L29.4976 13.575L30.6262 14.9516L29.6164 15.6399L30.2104 20.1714L31.2201 21.5481L21.2415 22.3511L20.9446 20.1714L19.6378 21.3186L19.2221 22.3511L15.3613 22.81L14.3515 19.0816L10.669 18.1064C10.6096 17.7623 10.5502 17.5902 10.4314 17.4755C10.2532 17.4181 10.075 17.3608 9.83741 17.3608C9.59982 17.3608 9.36224 17.3608 9.12465 17.3608C9.06526 17.3608 9.00586 17.3608 8.94646 17.4181C8.88707 17.4181 8.88707 17.4755 8.82767 17.4755C8.76827 17.4181 8.70888 17.3608 8.64948 17.3034L6.51121 17.9917L6.09543 18.508L6.27362 19.8846L4.13535 20.745L2.94742 21.6628C3.06621 21.6628 3.00681 21.7775 2.76923 21.9496C2.70983 22.007 2.59104 22.007 2.41285 21.9496L1.81888 21.1465L0.809143 22.9247L4.37293 24.9897C4.49173 24.8176 4.55112 24.7603 4.72931 24.7603C4.84811 24.7603 4.9669 24.7603 5.08569 24.875C5.38267 24.8176 5.56086 24.875 5.73905 25.0471C5.73905 25.1618 5.85784 25.2191 5.97664 25.2765C6.03603 25.3339 6.15483 25.3339 6.21422 25.4486C6.27362 25.5059 6.33302 25.5633 6.45181 25.6207C6.5706 25.7928 6.74879 25.9648 6.98638 26.0796C7.04577 26.1943 7.16457 26.2516 7.22396 26.3664L8.41189 26.4811L10.2532 25.9648L10.9659 26.3664L11.6787 27.6283L11.7975 28.8329L11.3817 30.0948L12.5103 30.611L13.52 31.873L13.1042 32.9628L11.3817 34.0527C11.2035 34.11 11.0253 34.0527 10.9659 33.9379C10.9065 33.9379 10.7878 33.9953 10.669 34.11C10.669 34.11 10.669 34.1674 10.669 34.2247L11.2629 36.1176L10.7878 36.5192L10.075 37.7811L10.372 38.7562L11.3817 39.5593L12.8072 39.8461L13.1042 40.4197L13.52 39.5593L16.668 38.7562L17.2026 38.3547L17.7965 38.8709L19.1033 38.0679L20.0536 39.8461L21.2415 40.4197C21.1227 40.0755 21.3603 39.9608 21.7761 39.9608C21.8949 39.9034 21.9543 40.0182 22.0137 40.4197V40.477C22.0137 40.477 22.1325 40.4197 22.1919 40.4197L23.0828 40.6491L23.4986 41.6243L24.0926 41.108L25.2211 40.4197L25.5181 39.9608L26.3496 39.7313L28.6067 37.8958L29.4976 38.7562L28.9037 39.9608L29.0819 40.1329H28.9037L28.7849 40.5344V40.6491L28.6067 40.9359L28.4879 41.108L28.3691 41.5095V41.6243L30.745 41.108L31.9329 39.9608L32.4675 39.8461L32.7645 39.4445L34.0712 39.7313L35.0215 38.8709L35.4967 39.5593L36.3282 39.8461L37.041 39.7313L38.5853 39.8461L39.5951 40.1329L40.486 39.4445L41.9115 39.5593L42.8619 39.1577L43.8716 38.1826L44.2874 36.5192L45.4753 37.6664L46.6038 39.1577V40.1329L47.0196 40.5344L48.3263 40.8212L49.1579 39.9608C49.2173 39.9034 49.2767 39.7887 49.3361 39.674C49.3361 39.674 49.3361 39.6166 49.3361 39.5593C49.2767 39.5019 49.2767 39.4445 49.2767 39.4445L50.4646 37.8958L50.8804 38.8709L51.7119 39.7313L52.8405 39.1577L53.1374 37.8958L53.8502 38.8709L54.7412 38.1826C54.8599 38.4694 55.0975 38.6989 55.3945 38.8136C55.4539 38.8709 55.5133 38.8136 55.5727 38.7562C55.5727 38.8709 55.5727 39.043 55.5727 39.1577C56.1667 39.043 56.523 38.8136 56.5824 38.4694C56.6418 38.4121 56.6418 38.3547 56.6418 38.2973C56.7012 38.2973 56.7012 38.24 56.7012 38.1826C56.7012 38.1253 56.7012 38.0679 56.7012 38.0679H57.711C57.9486 38.1826 58.1268 38.1826 58.3049 38.0105C58.3049 38.0105 58.4237 38.0105 58.5425 38.1253C58.6613 38.1826 58.7801 38.24 58.8395 38.3547C58.8395 38.3547 58.8395 38.4121 58.8395 38.4694C58.7207 38.7562 58.6613 38.9857 58.6613 39.2151L58.8395 39.1577H59.0177C59.3147 39.3872 59.4335 39.4446 59.4335 39.2725C59.4929 39.043 59.4335 38.8136 59.2553 38.5841L59.7305 38.0679L62.1063 42.3126C61.7499 42.542 61.6905 42.7715 61.8687 43.0009C61.9281 43.0583 61.9281 43.1156 61.9875 43.173L61.0966 43.6892L60.4432 45.238L59.4335 45.4674L58.8395 46.4425L59.4335 47.7045L60.265 48.106C60.6214 48.1634 60.7402 48.3928 60.6808 48.7943C60.6808 49.4253 60.6808 49.8842 60.7996 50.343C60.859 50.5151 60.9778 50.7446 61.0372 50.974C61.0372 50.9167 61.0966 50.9167 61.0966 50.8593C61.2748 50.8019 61.3936 50.7446 61.5124 50.6298C61.5124 50.6298 61.5718 50.6299 61.5718 50.5725L61.6905 47.7045H63.5318L64.2446 46.041L63.8288 45.238L64.9574 44.3776L66.5611 43.5745L66.9768 41.5095L66.6798 39.4445L66.1453 39.043L66.858 38.5841C66.6205 38.4694 66.4423 38.2973 66.3829 38.1253C66.3829 38.0679 66.3829 37.9532 66.3829 37.7811C66.4423 37.7237 66.6204 37.6664 66.6798 37.6664H66.858C66.858 37.4943 66.7986 37.3796 66.7392 37.2075C66.7392 37.2075 66.7986 37.2075 66.858 37.2075L67.8084 36.5192L66.9768 34.2247V32.9628L67.9272 33.6511L69.2339 33.0775L68.1054 32.676L68.2242 30.7831L68.9963 28.5461L67.5708 28.0298L67.8084 24.875L67.3926 24.3014L67.6896 20.5729Z" fill="#B4FF00" stroke="white" stroke-miterlimit="10"/>
</svg>
