<svg width="51" height="34" viewBox="0 0 51 34" fill="none" xmlns="http://www.w3.org/2000/svg">
<path d="M8.86687 4.59834L7.61953 5.28667L6.43161 4.48362L5.30308 5.28667L2.74902 5.57347L2.45204 9.3019L2.86782 9.87551L2.63023 13.0303L4.05575 13.5466L3.28359 15.7836L3.1648 17.6765L4.29334 18.0781L2.98661 18.6517L2.03627 17.9633V19.2253L2.86782 21.5197L1.91748 22.208C1.85808 22.208 1.79868 22.208 1.79868 22.208C1.85807 22.3801 1.91748 22.4948 1.91748 22.6669H1.73929C1.67989 22.6669 1.5017 22.7243 1.4423 22.7816C1.4423 22.9537 1.4423 23.0684 1.4423 23.1258C1.5017 23.2979 1.67989 23.4699 1.91748 23.5847L1.20471 24.0436L1.73929 24.4451L2.03627 26.5101L1.62049 28.575L2.33325 28.9766L2.98661 28.575L4.47152 29.0913C4.47152 29.1486 4.47152 29.206 4.53092 29.2634C4.64971 29.4354 4.64971 29.5502 4.53092 29.6649C4.41213 29.837 4.17454 30.009 3.87755 30.0664L3.75876 30.2385C3.87756 30.2959 4.11514 30.4106 4.47152 30.4679L5.18428 31.3283L5.00609 32.3035L5.60006 32.0167L6.5504 32.3035L7.61953 31.8446L8.45109 32.3035L9.28264 31.1563L11.0051 30.7547L11.1833 28.6898L12.0149 28.0014L12.3119 25.1334L13.7374 24.9613L14.2719 25.5349C14.3313 25.4776 14.3907 25.3628 14.4501 25.3055C14.6877 25.1908 14.9253 25.1334 15.1035 25.1334C15.2223 25.1908 15.2817 25.2481 15.4599 25.2481L15.9944 23.7568C16.0538 23.5273 16.1132 23.3552 16.1726 23.1831L18.1327 24.7319V25.5349L18.8455 26.338L19.4394 26.5101L21.2807 28.2882L22.1123 27.1984L24.1318 27.0263L23.122 25.9365L24.013 24.5598L25.4385 24.9613L27.1016 22.6669L27.9925 22.7816L28.8241 23.5847L29.1211 22.6669L30.2496 22.0933L31.9721 23.0684L31.3781 21.8065L30.1308 20.8314L29.8338 19.34L29.418 18.537L31.3781 18.3649L32.5661 17.5618L34.1104 17.1603L35.6547 17.6765L38.6839 16.9882L40.1094 16.0704L40.2282 14.9232L41.1192 14.6938L41.238 14.1202L43.0792 13.0303L42.5447 12.1699L41.6537 11.7684L43.0792 11.2522L45.2175 12.1699H46.5242L46.8212 10.9654L46.2273 9.87551L46.8212 8.03997L47.9498 7.81053H48.6625L49.9098 8.32678L50.2068 7.52372L49.6723 6.8354V5.17195C49.4941 4.94251 49.3753 4.77042 49.1971 4.59834L48.6625 2.41864L46.2273 1.32879C46.1085 1.50088 45.8115 1.55824 45.3363 1.44351C45.0393 1.27143 44.683 1.15671 44.386 1.04199C43.9108 1.04199 43.4356 1.09935 42.9604 1.21407C42.8417 1.15671 42.6635 1.21407 42.4853 1.21407C42.2477 1.32879 41.9507 1.44351 41.7131 1.50087C41.5349 1.61559 41.3567 1.67296 41.238 1.73032L40.941 2.87753C40.7034 3.22169 40.2876 3.50849 39.8718 3.73793C39.6342 3.85266 39.3967 4.02474 39.2185 4.19682C38.9215 4.31154 38.6839 4.48362 38.3869 4.59834C38.0305 4.71306 37.7336 4.82778 37.3772 4.88515C36.7832 5.05723 36.2486 5.11458 35.6547 5.11458C35.4765 5.11458 35.2983 5.05723 35.1201 5.05723C35.0013 4.99987 34.9419 4.94251 34.8231 4.88515C34.7043 4.88515 34.5261 4.77043 34.4074 4.77043C34.1698 4.71307 33.9916 4.6557 33.8134 4.59834C33.5164 4.59834 33.2194 4.59834 32.9818 4.59834C32.6255 4.59834 32.3285 4.59834 31.9721 4.59834L29.8338 5.28667L28.4083 4.48362L20.568 6.5486L15.4599 5.86027L8.86687 4.59834Z" fill="#C4DFE9" stroke="white" stroke-miterlimit="10"/>
</svg>
