<svg width="60" height="46" viewBox="0 0 60 46" fill="none" xmlns="http://www.w3.org/2000/svg">
<path d="M2.55336 23.2448C2.49397 23.3022 2.43456 23.4169 2.43456 23.589L1.30603 23.9905L1.72181 26.0555L2.43456 26.5717L2.13758 27.719L0.890259 27.8337L1.72181 30.8738C1.95939 30.9885 2.19698 31.0459 2.43456 31.1606L2.13758 30.3002L3.74129 31.1606C3.5631 31.2753 3.44431 31.2753 3.38491 31.39C3.32551 31.5621 3.32552 31.8489 3.44431 32.1357L5.40439 32.652L5.1668 33.3403L5.87956 33.9139C5.76077 33.9139 5.64197 33.9713 5.58258 34.0286C5.52318 34.0286 5.46378 34.086 5.40439 34.1433V34.8317L5.87956 35.1185L5.58258 35.8068L4.86982 35.9789C4.63224 35.8641 4.45405 35.8642 4.33526 35.8642C4.21646 35.8642 4.09767 35.9215 4.03827 36.0936C3.97888 36.0936 3.97887 36.1509 3.97887 36.2083L3.26612 35.52L1.8406 36.8966L2.55336 37.757L3.5631 37.585L4.45405 38.1586H5.70137L7.0081 39.5352L8.01784 39.1337L9.26516 40.1088L10.0967 39.9367L10.5719 41.1987L11.5816 42.5753L12.2944 41.7149L13.3635 40.9119L14.4327 41.3134H15.1454L16.0958 40.9119L17.9964 40.7971L22.273 42.9769L23.9361 41.3134L25.2428 41.4855L26.3713 42.0017C26.6683 41.8296 26.9059 41.7149 27.0841 41.6002C27.3217 41.7149 27.5593 41.887 27.7969 42.0017L28.9254 42.1738L29.5194 43.2637L34.0929 44.3535L34.8056 43.2637C34.865 43.1489 35.0432 43.0916 35.3402 43.0342C35.459 42.9769 35.5184 42.9769 35.6372 42.9769C35.756 43.0342 35.9342 43.0916 36.053 43.2637L36.7657 44.3535L37.3597 44.9271L39.201 45.0418L39.498 43.2637H40.9235L41.5175 41.4855L42.052 42.0017L44.0715 41.4855L44.6061 40.9119L45.3188 41.0266L45.2 40.2235L46.6256 38.8469L47.6353 38.5601L47.2195 37.585L48.0511 36.2083L48.8826 36.3804L48.4668 35.4053L49.4766 34.7169L49.5954 33.455L51.6149 33.6271L52.2088 34.3154L53.7531 34.8317L54.1689 35.4053L55.1786 35.9789H56.4854V34.7169L57.0199 33.7418L56.3072 32.9388L57.4357 32.2504L57.9109 31.8489L58.6236 32.1357L58.0297 31.2753L57.3169 30.8738L58.0297 29.8986L57.9109 29.4971L59.3364 26.8585L58.3267 25.8834L56.6042 26.7438L55.5944 26.3423L55.0599 26.5717L54.1689 26.1702H53.4562L53.0404 25.1951L54.8817 22.0403L56.3072 21.0651H55.2974L54.8817 20.6636L54.3471 21.0651C54.2283 21.0651 54.1095 21.0078 54.0501 20.9504C53.9907 20.9504 53.9313 20.9504 53.8719 20.9504C53.8719 21.0078 53.8125 21.0651 53.7531 21.0651L51.1991 19.459H51.0803C51.0803 19.5738 51.0803 19.6885 51.0803 19.8032C51.0209 19.8606 51.0209 19.9179 50.9615 19.8606C50.9615 19.8606 50.9021 19.8032 50.9021 19.6885L47.6353 15.7306L46.7443 16.1321L45.6158 15.0423V13.9524C45.5564 13.7803 45.497 13.723 45.4376 13.6656C45.2594 13.6656 45.0812 13.6656 44.903 13.6083C44.8437 13.6656 44.7843 13.6656 44.7843 13.6656L43.6557 12.6905L44.1903 12.1169L43.8933 9.9372C43.8933 10.0519 43.8933 10.1093 43.8933 10.224C43.8339 10.3961 43.7745 10.5108 43.6557 10.5108C43.4775 10.4534 43.3587 10.3961 43.24 10.2814C43.1806 10.224 43.1212 10.1666 43.0618 10.0519L43.3587 9.36359L42.4678 8.84735L41.5175 8.56055L41.3393 10.5108C41.2799 10.5108 41.2205 10.5108 41.2205 10.5108C41.1611 10.5108 41.1017 10.5108 41.0423 10.5108C40.9235 10.5108 40.8047 10.5682 40.6859 10.6829C40.5671 10.7402 40.5671 10.7976 40.5671 10.9123C40.6265 11.0271 40.6859 11.1991 40.8047 11.3138L39.795 11.4286C39.795 11.658 39.7356 11.8301 39.6762 12.0022C39.6168 12.0022 39.6168 12.0022 39.498 12.0022L38.3694 12.5758L37.4785 13.092L36.053 13.6656V12.8052L37.2409 12.5758L38.0725 11.3138L38.1913 10.3387L38.7852 9.82247L38.3694 8.84735L37.2409 8.96206L36.5282 8.15902V6.78237L37.3597 5.69252L36.35 4.43058L35.5184 4.31587L35.1026 3.34074L35.3402 1.96409L34.9244 1.10368L34.0929 0.702148L31.6576 1.56256L30.5291 1.10368L27.7969 1.67728L27.9751 4.02907L28.3908 4.43058V6.09403L26.7871 6.78237C26.6683 6.78237 26.5495 6.725 26.4307 6.66764C26.3714 6.61028 26.2526 6.49556 26.2526 6.38084C26.2526 6.55292 26.1932 6.61028 26.1338 6.66764C25.9556 6.725 25.7774 6.72501 25.5398 6.61029C25.421 6.61029 25.3616 6.61029 25.2428 6.61029L24.2331 6.89709L24.6489 8.67526C24.7676 8.67526 24.8864 8.67526 24.9458 8.67526L25.124 8.61791C24.8864 8.73263 24.6488 8.84734 24.4113 8.96206L24.1143 8.27374L22.8076 7.98694C22.7482 7.98694 22.7482 7.98694 22.6888 8.04431C22.57 8.15903 22.5106 8.21638 22.4512 8.21638C22.273 8.3311 22.1542 8.33111 21.976 8.33111C21.8572 8.33111 21.7978 8.33111 21.679 8.33111C21.6196 8.33111 21.5602 8.21638 21.5602 8.15902L20.1347 7.87221C19.7189 8.04429 19.422 7.98694 19.2438 7.64277C19.125 7.58541 19.125 7.47069 19.125 7.29861L16.6897 7.58541L15.8582 8.84735L16.0958 9.36359L15.5612 10.5108L15.68 11.8874C15.5612 12.1743 15.383 12.4037 15.0266 12.5758C15.0266 12.5758 14.9672 12.5758 14.8484 12.5184C14.789 12.4611 14.7296 12.4611 14.6702 12.4037L13.1259 12.6905L11.8192 13.2641L11.2846 13.7804L10.0967 13.2641L9.26516 12.4037L8.25542 13.9524L7.0081 13.4936L6.11715 12.0022L5.99835 13.7804C5.93895 13.8377 5.87956 13.8951 5.87956 13.9524C5.76077 14.0672 5.64197 14.1245 5.40439 14.0672C5.34499 14.0672 5.2856 14.1245 5.2262 14.2392C5.10741 14.354 5.04801 14.4687 4.98861 14.5834C4.92922 14.6408 4.92922 14.7555 5.04801 14.8702C5.04801 14.9276 5.10741 14.9849 5.1668 15.0423L4.69163 15.4438L3.97887 16.8205L3.74129 19.287L3.97887 19.8606C3.68189 20.0326 3.38491 20.2621 3.20672 20.4915C3.14732 20.5489 3.20672 20.6636 3.26612 20.8357L3.5631 22.0403L3.14733 22.3271V23.0154C2.90974 23.0727 2.73155 23.1301 2.55336 23.2448Z" fill="#B4FF00" stroke="white" stroke-miterlimit="10"/>
</svg>
